<svg version="1.1" xmlns="http://www.w3.org/2000/svg" viewBox="0 0 602.400024414063 460.0000305175781" width="602.400024414063" height="460.0000305175781">
  <!-- svg-source:excalidraw -->
  
  <defs>
    <style class="style-fonts">
      @font-face {
        font-family: "Virgil";
        src: url("https://excalidraw.com/Virgil.woff2");
      }
      @font-face {
        font-family: "Cascadia";
        src: url("https://excalidraw.com/Cascadia.woff2");
      }
    </style>
    
  </defs>
  <g stroke-linecap="round"><g transform="translate(10 10) rotate(0 291.2000122070315 220.00001525878906)"><path d="M0 0 C85.99 8.88, 418.88 -20.07, 515.95 53.26 C613.02 126.6, 571.33 375.54, 582.4 440 M0 0 C85.99 8.88, 418.88 -20.07, 515.95 53.26 C613.02 126.6, 571.33 375.54, 582.4 440" stroke="#8cd2a4" stroke-width="4" fill="none"></path></g><g transform="translate(10 10) rotate(0 291.2000122070315 220.00001525878906)"><path d="M582.4 440 L575.94 426.46 L588.62 426.35 L582.4 440" stroke="none" stroke-width="0" fill="#8cd2a4" fill-rule="evenodd"></path><path d="M582.4 440 C580.62 436.27, 578.83 432.53, 575.94 426.46 M582.4 440 C580.34 435.7, 578.29 431.39, 575.94 426.46 M575.94 426.46 C578.59 426.44, 581.25 426.42, 588.62 426.35 M575.94 426.46 C580.29 426.42, 584.64 426.38, 588.62 426.35 M588.62 426.35 C586.44 431.12, 584.27 435.89, 582.4 440 M588.62 426.35 C586.34 431.34, 584.07 436.33, 582.4 440 M582.4 440 C582.4 440, 582.4 440, 582.4 440 M582.4 440 C582.4 440, 582.4 440, 582.4 440" stroke="#8cd2a4" stroke-width="4" fill="none"></path></g></g><mask></mask></svg>