<svg version="1.1" xmlns="http://www.w3.org/2000/svg" viewBox="0 0 2773.0652974446607 1384.7999420166007" width="2773.0652974446607" height="1384.7999420166007">
  <!-- svg-source:excalidraw -->
  
  <defs>
    <style class="style-fonts">
      @font-face {
        font-family: "Virgil";
        src: url("https://excalidraw.com/Virgil.woff2");
      }
      @font-face {
        font-family: "Cascadia";
        src: url("https://excalidraw.com/Cascadia.woff2");
      }
    </style>
    
  </defs>
  <g stroke-linecap="round" transform="translate(10 10) rotate(0 1376.5326487223304 682.3999710083003)"><path d="M0 0 L2753.07 0 L2753.07 1364.8 L0 1364.8" stroke="none" stroke-width="0" fill="#e5f2e8"></path><path d="M0 0 C1051.79 0, 2103.58 0, 2753.07 0 M0 0 C1059.57 0, 2119.13 0, 2753.07 0 M2753.07 0 C2753.07 501.53, 2753.07 1003.07, 2753.07 1364.8 M2753.07 0 C2753.07 401.91, 2753.07 803.83, 2753.07 1364.8 M2753.07 1364.8 C1685.9 1364.8, 618.74 1364.8, 0 1364.8 M2753.07 1364.8 C1730.08 1364.8, 707.09 1364.8, 0 1364.8 M0 1364.8 C0 1052.83, 0 740.86, 0 0 M0 1364.8 C0 983.23, 0 601.66, 0 0" stroke="transparent" stroke-width="1" fill="none"></path></g><g stroke-linecap="round" transform="translate(1606.265818277996 29.199925740559593) rotate(0 485.5999755859373 463.4667002360029)"><path d="M971.2 463.47 C971.2 470.4, 971.04 477.34, 970.71 484.26 C970.39 491.18, 969.9 498.11, 969.25 505.01 C968.59 511.91, 967.78 518.81, 966.81 525.68 C965.83 532.55, 964.69 539.4, 963.4 546.22 C962.1 553.04, 960.64 559.84, 959.02 566.6 C957.41 573.36, 955.63 580.08, 953.7 586.77 C951.77 593.45, 949.68 600.09, 947.43 606.69 C945.19 613.28, 942.79 619.83, 940.24 626.32 C937.68 632.81, 934.98 639.25, 932.12 645.62 C929.27 651.99, 926.26 658.31, 923.11 664.56 C919.96 670.8, 916.66 676.99, 913.22 683.09 C909.78 689.19, 906.19 695.23, 902.46 701.18 C898.74 707.13, 894.87 713, 890.87 718.79 C886.87 724.57, 882.73 730.28, 878.46 735.89 C874.19 741.49, 869.79 747.01, 865.26 752.43 C860.73 757.85, 856.07 763.18, 851.29 768.4 C846.51 773.62, 841.61 778.74, 836.59 783.75 C831.57 788.76, 826.43 793.67, 821.18 798.46 C815.93 803.25, 810.56 807.93, 805.1 812.49 C799.63 817.05, 794.04 821.5, 788.37 825.82 C782.69 830.14, 776.9 834.35, 771.03 838.42 C765.15 842.49, 759.18 846.45, 753.12 850.26 C747.05 854.08, 740.9 857.77, 734.66 861.33 C728.43 864.88, 722.11 868.31, 715.71 871.59 C709.32 874.88, 702.84 878.03, 696.29 881.04 C689.75 884.04, 683.13 886.91, 676.45 889.64 C669.78 892.36, 663.03 894.94, 656.23 897.38 C649.43 899.82, 642.57 902.11, 635.66 904.25 C628.75 906.39, 621.79 908.39, 614.79 910.23 C607.79 912.08, 600.74 913.77, 593.66 915.31 C586.58 916.86, 579.45 918.25, 572.31 919.49 C565.16 920.72, 557.98 921.81, 550.78 922.74 C543.59 923.67, 536.36 924.45, 529.13 925.07 C521.9 925.69, 514.64 926.16, 507.39 926.47 C500.13 926.78, 492.86 926.93, 485.6 926.93 C478.34 926.93, 471.07 926.78, 463.81 926.47 C456.56 926.16, 449.3 925.69, 442.07 925.07 C434.84 924.45, 427.61 923.67, 420.42 922.74 C413.22 921.81, 406.04 920.72, 398.89 919.49 C391.75 918.25, 384.62 916.86, 377.54 915.31 C370.46 913.77, 363.41 912.08, 356.41 910.23 C349.41 908.39, 342.45 906.39, 335.54 904.25 C328.63 902.11, 321.77 899.82, 314.97 897.38 C308.17 894.94, 301.42 892.36, 294.75 889.64 C288.07 886.91, 281.45 884.04, 274.91 881.04 C268.36 878.03, 261.88 874.88, 255.49 871.59 C249.09 868.31, 242.77 864.88, 236.54 861.33 C230.3 857.77, 224.15 854.08, 218.08 850.26 C212.02 846.45, 206.05 842.49, 200.17 838.42 C194.3 834.35, 188.51 830.14, 182.83 825.82 C177.16 821.5, 171.57 817.05, 166.1 812.49 C160.64 807.93, 155.27 803.25, 150.02 798.46 C144.77 793.67, 139.63 788.76, 134.61 783.75 C129.59 778.74, 124.69 773.62, 119.91 768.4 C115.13 763.18, 110.47 757.85, 105.94 752.43 C101.41 747.01, 97.01 741.49, 92.74 735.89 C88.47 730.28, 84.33 724.57, 80.33 718.79 C76.33 713, 72.46 707.13, 68.74 701.18 C65.01 695.23, 61.42 689.19, 57.98 683.09 C54.54 676.99, 51.24 670.8, 48.09 664.56 C44.94 658.31, 41.93 651.99, 39.08 645.62 C36.22 639.25, 33.52 632.81, 30.96 626.32 C28.41 619.83, 26.01 613.28, 23.77 606.69 C21.52 600.09, 19.43 593.45, 17.5 586.77 C15.57 580.08, 13.79 573.36, 12.18 566.6 C10.56 559.84, 9.1 553.04, 7.8 546.22 C6.51 539.4, 5.37 532.55, 4.39 525.68 C3.42 518.81, 2.61 511.91, 1.95 505.01 C1.3 498.11, 0.81 491.18, 0.49 484.26 C0.16 477.34, 0 470.4, 0 463.47 C0 456.54, 0.16 449.6, 0.49 442.67 C0.81 435.75, 1.3 428.83, 1.95 421.92 C2.61 415.02, 3.42 408.12, 4.39 401.25 C5.37 394.39, 6.51 387.53, 7.8 380.71 C9.1 373.89, 10.56 367.09, 12.18 360.34 C13.79 353.58, 15.57 346.85, 17.5 340.17 C19.43 333.49, 21.52 326.84, 23.77 320.25 C26.01 313.66, 28.41 307.11, 30.96 300.62 C33.52 294.13, 36.22 287.69, 39.08 281.31 C41.93 274.94, 44.94 268.62, 48.09 262.38 C51.24 256.13, 54.54 249.95, 57.98 243.84 C61.42 237.74, 65.01 231.7, 68.74 225.75 C72.46 219.8, 76.33 213.93, 80.33 208.14 C84.33 202.36, 88.47 196.66, 92.74 191.05 C97.01 185.44, 101.41 179.92, 105.94 174.5 C110.47 169.08, 115.13 163.75, 119.91 158.53 C124.69 153.31, 129.59 148.19, 134.61 143.18 C139.63 138.17, 144.77 133.27, 150.02 128.48 C155.27 123.69, 160.64 119, 166.1 114.44 C171.57 109.88, 177.16 105.44, 182.83 101.11 C188.51 96.79, 194.3 92.59, 200.17 88.51 C206.05 84.44, 212.02 80.49, 218.08 76.67 C224.15 72.85, 230.3 69.16, 236.54 65.6 C242.77 62.05, 249.09 58.62, 255.49 55.34 C261.88 52.06, 268.36 48.9, 274.91 45.9 C281.45 42.89, 288.07 40.02, 294.75 37.3 C301.42 34.57, 308.17 31.99, 314.97 29.55 C321.77 27.12, 328.63 24.83, 335.54 22.68 C342.45 20.54, 349.41 18.55, 356.41 16.7 C363.41 14.86, 370.46 13.16, 377.54 11.62 C384.62 10.08, 391.75 8.69, 398.89 7.45 C406.04 6.21, 413.22 5.12, 420.42 4.19 C427.61 3.26, 434.84 2.49, 442.07 1.87 C449.3 1.24, 456.56 0.78, 463.81 0.47 C471.07 0.16, 478.34 0, 485.6 0 C492.86 0, 500.13 0.16, 507.39 0.47 C514.64 0.78, 521.9 1.24, 529.13 1.87 C536.36 2.49, 543.59 3.26, 550.78 4.19 C557.98 5.12, 565.16 6.21, 572.31 7.45 C579.45 8.69, 586.58 10.08, 593.66 11.62 C600.74 13.16, 607.79 14.86, 614.79 16.7 C621.79 18.55, 628.75 20.54, 635.66 22.68 C642.57 24.83, 649.43 27.12, 656.23 29.55 C663.03 31.99, 669.78 34.57, 676.45 37.3 C683.13 40.02, 689.75 42.89, 696.29 45.9 C702.84 48.9, 709.32 52.06, 715.71 55.34 C722.11 58.62, 728.43 62.05, 734.66 65.6 C740.9 69.16, 747.05 72.85, 753.12 76.67 C759.18 80.49, 765.15 84.44, 771.03 88.51 C776.9 92.59, 782.69 96.79, 788.37 101.11 C794.04 105.44, 799.63 109.88, 805.1 114.44 C810.56 119, 815.93 123.69, 821.18 128.48 C826.43 133.27, 831.57 138.17, 836.59 143.18 C841.61 148.19, 846.51 153.31, 851.29 158.53 C856.07 163.75, 860.73 169.08, 865.26 174.5 C869.79 179.92, 874.19 185.44, 878.46 191.05 C882.73 196.66, 886.87 202.36, 890.87 208.14 C894.87 213.93, 898.74 219.8, 902.46 225.75 C906.19 231.7, 909.78 237.74, 913.22 243.84 C916.66 249.95, 919.96 256.13, 923.11 262.38 C926.26 268.62, 929.27 274.94, 932.12 281.31 C934.98 287.69, 937.68 294.13, 940.24 300.62 C942.79 307.11, 945.19 313.66, 947.43 320.25 C949.68 326.84, 951.77 333.49, 953.7 340.17 C955.63 346.85, 957.41 353.58, 959.02 360.34 C960.64 367.09, 962.1 373.89, 963.4 380.71 C964.69 387.53, 965.83 394.39, 966.81 401.25 C967.78 408.12, 968.59 415.02, 969.25 421.92 C969.9 428.83, 970.39 435.75, 970.71 442.67 C971.04 449.6, 971.12 460, 971.2 463.47 C971.28 466.93, 971.28 460, 971.2 463.47" stroke="none" stroke-width="0" fill="#ecd5ac"></path><path d="M971.2 463.47 C971.2 470.4, 971.04 477.34, 970.71 484.26 C970.39 491.18, 969.9 498.11, 969.25 505.01 C968.59 511.91, 967.78 518.81, 966.81 525.68 C965.83 532.55, 964.69 539.4, 963.4 546.22 C962.1 553.04, 960.64 559.84, 959.02 566.6 C957.41 573.36, 955.63 580.08, 953.7 586.77 C951.77 593.45, 949.68 600.09, 947.43 606.69 C945.19 613.28, 942.79 619.83, 940.24 626.32 C937.68 632.81, 934.98 639.25, 932.12 645.62 C929.27 651.99, 926.26 658.31, 923.11 664.56 C919.96 670.8, 916.66 676.99, 913.22 683.09 C909.78 689.19, 906.19 695.23, 902.46 701.18 C898.74 707.13, 894.87 713, 890.87 718.79 C886.87 724.57, 882.73 730.28, 878.46 735.89 C874.19 741.49, 869.79 747.01, 865.26 752.43 C860.73 757.85, 856.07 763.18, 851.29 768.4 C846.51 773.62, 841.61 778.74, 836.59 783.75 C831.57 788.76, 826.43 793.67, 821.18 798.46 C815.93 803.25, 810.56 807.93, 805.1 812.49 C799.63 817.05, 794.04 821.5, 788.37 825.82 C782.69 830.14, 776.9 834.35, 771.03 838.42 C765.15 842.49, 759.18 846.45, 753.12 850.26 C747.05 854.08, 740.9 857.77, 734.66 861.33 C728.43 864.88, 722.11 868.31, 715.71 871.59 C709.32 874.88, 702.84 878.03, 696.29 881.04 C689.75 884.04, 683.13 886.91, 676.45 889.64 C669.78 892.36, 663.03 894.94, 656.23 897.38 C649.43 899.82, 642.57 902.11, 635.66 904.25 C628.75 906.39, 621.79 908.39, 614.79 910.23 C607.79 912.08, 600.74 913.77, 593.66 915.31 C586.58 916.86, 579.45 918.25, 572.31 919.49 C565.16 920.72, 557.98 921.81, 550.78 922.74 C543.59 923.67, 536.36 924.45, 529.13 925.07 C521.9 925.69, 514.64 926.16, 507.39 926.47 C500.13 926.78, 492.86 926.93, 485.6 926.93 C478.34 926.93, 471.07 926.78, 463.81 926.47 C456.56 926.16, 449.3 925.69, 442.07 925.07 C434.84 924.45, 427.61 923.67, 420.42 922.74 C413.22 921.81, 406.04 920.72, 398.89 919.49 C391.75 918.25, 384.62 916.86, 377.54 915.31 C370.46 913.77, 363.41 912.08, 356.41 910.23 C349.41 908.39, 342.45 906.39, 335.54 904.25 C328.63 902.11, 321.77 899.82, 314.97 897.38 C308.17 894.94, 301.42 892.36, 294.75 889.64 C288.07 886.91, 281.45 884.04, 274.91 881.04 C268.36 878.03, 261.88 874.88, 255.49 871.59 C249.09 868.31, 242.77 864.88, 236.54 861.33 C230.3 857.77, 224.15 854.08, 218.08 850.26 C212.02 846.45, 206.05 842.49, 200.17 838.42 C194.3 834.35, 188.51 830.14, 182.83 825.82 C177.16 821.5, 171.57 817.05, 166.1 812.49 C160.64 807.93, 155.27 803.25, 150.02 798.46 C144.77 793.67, 139.63 788.76, 134.61 783.75 C129.59 778.74, 124.69 773.62, 119.91 768.4 C115.13 763.18, 110.47 757.85, 105.94 752.43 C101.41 747.01, 97.01 741.49, 92.74 735.89 C88.47 730.28, 84.33 724.57, 80.33 718.79 C76.33 713, 72.46 707.13, 68.74 701.18 C65.01 695.23, 61.42 689.19, 57.98 683.09 C54.54 676.99, 51.24 670.8, 48.09 664.56 C44.94 658.31, 41.93 651.99, 39.08 645.62 C36.22 639.25, 33.52 632.81, 30.96 626.32 C28.41 619.83, 26.01 613.28, 23.77 606.69 C21.52 600.09, 19.43 593.45, 17.5 586.77 C15.57 580.08, 13.79 573.36, 12.18 566.6 C10.56 559.84, 9.1 553.04, 7.8 546.22 C6.51 539.4, 5.37 532.55, 4.39 525.68 C3.42 518.81, 2.61 511.91, 1.95 505.01 C1.3 498.11, 0.81 491.18, 0.49 484.26 C0.16 477.34, 0 470.4, 0 463.47 C0 456.54, 0.16 449.6, 0.49 442.67 C0.81 435.75, 1.3 428.83, 1.95 421.92 C2.61 415.02, 3.42 408.12, 4.39 401.25 C5.37 394.39, 6.51 387.53, 7.8 380.71 C9.1 373.89, 10.56 367.09, 12.18 360.34 C13.79 353.58, 15.57 346.85, 17.5 340.17 C19.43 333.49, 21.52 326.84, 23.77 320.25 C26.01 313.66, 28.41 307.11, 30.96 300.62 C33.52 294.13, 36.22 287.69, 39.08 281.31 C41.93 274.94, 44.94 268.62, 48.09 262.38 C51.24 256.13, 54.54 249.95, 57.98 243.84 C61.42 237.74, 65.01 231.7, 68.74 225.75 C72.46 219.8, 76.33 213.93, 80.33 208.14 C84.33 202.36, 88.47 196.66, 92.74 191.05 C97.01 185.44, 101.41 179.92, 105.94 174.5 C110.47 169.08, 115.13 163.75, 119.91 158.53 C124.69 153.31, 129.59 148.19, 134.61 143.18 C139.63 138.17, 144.77 133.27, 150.02 128.48 C155.27 123.69, 160.64 119, 166.1 114.44 C171.57 109.88, 177.16 105.44, 182.83 101.11 C188.51 96.79, 194.3 92.59, 200.17 88.51 C206.05 84.44, 212.02 80.49, 218.08 76.67 C224.15 72.85, 230.3 69.16, 236.54 65.6 C242.77 62.05, 249.09 58.62, 255.49 55.34 C261.88 52.06, 268.36 48.9, 274.91 45.9 C281.45 42.89, 288.07 40.02, 294.75 37.3 C301.42 34.57, 308.17 31.99, 314.97 29.55 C321.77 27.12, 328.63 24.83, 335.54 22.68 C342.45 20.54, 349.41 18.55, 356.41 16.7 C363.41 14.86, 370.46 13.16, 377.54 11.62 C384.62 10.08, 391.75 8.69, 398.89 7.45 C406.04 6.21, 413.22 5.12, 420.42 4.19 C427.61 3.26, 434.84 2.49, 442.07 1.87 C449.3 1.24, 456.56 0.78, 463.81 0.47 C471.07 0.16, 478.34 0, 485.6 0 C492.86 0, 500.13 0.16, 507.39 0.47 C514.64 0.78, 521.9 1.24, 529.13 1.87 C536.36 2.49, 543.59 3.26, 550.78 4.19 C557.98 5.12, 565.16 6.21, 572.31 7.45 C579.45 8.69, 586.58 10.08, 593.66 11.62 C600.74 13.16, 607.79 14.86, 614.79 16.7 C621.79 18.55, 628.75 20.54, 635.66 22.68 C642.57 24.83, 649.43 27.12, 656.23 29.55 C663.03 31.99, 669.78 34.57, 676.45 37.3 C683.13 40.02, 689.75 42.89, 696.29 45.9 C702.84 48.9, 709.32 52.06, 715.71 55.34 C722.11 58.62, 728.43 62.05, 734.66 65.6 C740.9 69.16, 747.05 72.85, 753.12 76.67 C759.18 80.49, 765.15 84.44, 771.03 88.51 C776.9 92.59, 782.69 96.79, 788.37 101.11 C794.04 105.44, 799.63 109.88, 805.1 114.44 C810.56 119, 815.93 123.69, 821.18 128.48 C826.43 133.27, 831.57 138.17, 836.59 143.18 C841.61 148.19, 846.51 153.31, 851.29 158.53 C856.07 163.75, 860.73 169.08, 865.26 174.5 C869.79 179.92, 874.19 185.44, 878.46 191.05 C882.73 196.66, 886.87 202.36, 890.87 208.14 C894.87 213.93, 898.74 219.8, 902.46 225.75 C906.19 231.7, 909.78 237.74, 913.22 243.84 C916.66 249.95, 919.96 256.13, 923.11 262.38 C926.26 268.62, 929.27 274.94, 932.12 281.31 C934.98 287.69, 937.68 294.13, 940.24 300.62 C942.79 307.11, 945.19 313.66, 947.43 320.25 C949.68 326.84, 951.77 333.49, 953.7 340.17 C955.63 346.85, 957.41 353.58, 959.02 360.34 C960.64 367.09, 962.1 373.89, 963.4 380.71 C964.69 387.53, 965.83 394.39, 966.81 401.25 C967.78 408.12, 968.59 415.02, 969.25 421.92 C969.9 428.83, 970.39 435.75, 970.71 442.67 C971.04 449.6, 971.12 460, 971.2 463.47 C971.28 466.93, 971.28 460, 971.2 463.47" stroke="transparent" stroke-width="1" fill="none"></path></g><g stroke-linecap="round" transform="translate(121.13341267903581 726.8002370198556) rotate(0 343.999979654948 314.6665344238286)"><path d="M688 314.67 C688 320.35, 687.83 326.03, 687.5 331.7 C687.16 337.37, 686.65 343.04, 685.98 348.69 C685.31 354.33, 684.47 359.97, 683.47 365.57 C682.46 371.18, 681.29 376.76, 679.96 382.31 C678.62 387.86, 677.12 393.38, 675.46 398.85 C673.8 404.32, 671.97 409.76, 669.99 415.14 C668.01 420.52, 665.87 425.86, 663.57 431.14 C661.27 436.41, 658.81 441.64, 656.21 446.79 C653.6 451.95, 650.84 457.04, 647.93 462.06 C645.02 467.08, 641.96 472.03, 638.76 476.89 C635.56 481.76, 632.21 486.55, 628.72 491.25 C625.24 495.95, 621.61 500.57, 617.86 505.09 C614.1 509.62, 610.2 514.05, 606.18 518.38 C602.16 522.71, 598.01 526.94, 593.74 531.06 C589.47 535.19, 585.08 539.21, 580.57 543.11 C576.06 547.02, 571.43 550.82, 566.7 554.49 C561.97 558.17, 557.12 561.73, 552.18 565.17 C547.24 568.61, 542.19 571.93, 537.05 575.11 C531.91 578.3, 526.67 581.36, 521.35 584.29 C516.03 587.22, 510.62 590.02, 505.13 592.68 C499.65 595.34, 494.08 597.87, 488.44 600.25 C482.81 602.63, 477.09 604.88, 471.33 606.98 C465.56 609.09, 459.72 611.05, 453.84 612.86 C447.96 614.67, 442.01 616.34, 436.03 617.86 C430.05 619.38, 424.01 620.76, 417.95 621.98 C411.89 623.2, 405.78 624.27, 399.65 625.19 C393.53 626.11, 387.36 626.87, 381.19 627.49 C375.02 628.1, 368.82 628.56, 362.62 628.87 C356.42 629.18, 350.21 629.33, 344 629.33 C337.79 629.33, 331.58 629.18, 325.38 628.87 C319.18 628.56, 312.98 628.1, 306.81 627.49 C300.64 626.87, 294.47 626.11, 288.35 625.19 C282.22 624.27, 276.11 623.2, 270.05 621.98 C263.99 620.76, 257.95 619.38, 251.97 617.86 C245.99 616.34, 240.04 614.67, 234.16 612.86 C228.28 611.05, 222.44 609.09, 216.67 606.98 C210.91 604.88, 205.19 602.63, 199.56 600.25 C193.92 597.87, 188.35 595.34, 182.87 592.68 C177.38 590.02, 171.97 587.22, 166.65 584.29 C161.33 581.36, 156.09 578.3, 150.95 575.11 C145.81 571.93, 140.76 568.61, 135.82 565.17 C130.88 561.73, 126.03 558.17, 121.3 554.49 C116.57 550.82, 111.94 547.02, 107.43 543.11 C102.92 539.21, 98.53 535.19, 94.26 531.06 C89.99 526.94, 85.84 522.71, 81.82 518.38 C77.8 514.05, 73.9 509.62, 70.14 505.09 C66.39 500.57, 62.76 495.95, 59.27 491.25 C55.79 486.55, 52.44 481.76, 49.24 476.89 C46.04 472.03, 42.98 467.08, 40.07 462.06 C37.16 457.04, 34.4 451.95, 31.79 446.79 C29.19 441.64, 26.73 436.41, 24.43 431.14 C22.13 425.86, 19.99 420.52, 18.01 415.14 C16.03 409.76, 14.2 404.32, 12.54 398.85 C10.88 393.38, 9.38 387.86, 8.04 382.31 C6.71 376.76, 5.54 371.18, 4.53 365.57 C3.53 359.97, 2.69 354.33, 2.02 348.69 C1.35 343.04, 0.84 337.37, 0.5 331.7 C0.17 326.03, 0 320.35, 0 314.67 C0 308.99, 0.17 303.3, 0.5 297.63 C0.84 291.96, 1.35 286.29, 2.02 280.65 C2.69 275, 3.53 269.36, 4.53 263.76 C5.54 258.16, 6.71 252.57, 8.04 247.02 C9.38 241.48, 10.88 235.96, 12.54 230.48 C14.2 225.01, 16.03 219.57, 18.01 214.19 C19.99 208.81, 22.13 203.47, 24.43 198.2 C26.73 192.92, 29.19 187.7, 31.79 182.54 C34.4 177.39, 37.16 172.29, 40.07 167.27 C42.98 162.26, 46.04 157.3, 49.24 152.44 C52.44 147.57, 55.79 142.78, 59.27 138.08 C62.76 133.38, 66.39 128.76, 70.14 124.24 C73.9 119.72, 77.8 115.28, 81.82 110.96 C85.84 106.63, 89.99 102.39, 94.26 98.27 C98.53 94.15, 102.92 90.13, 107.43 86.22 C111.94 82.31, 116.57 78.52, 121.3 74.84 C126.03 71.16, 130.88 67.6, 135.82 64.16 C140.76 60.73, 145.81 57.41, 150.95 54.22 C156.09 51.03, 161.33 47.97, 166.65 45.04 C171.97 42.11, 177.38 39.31, 182.87 36.65 C188.35 33.99, 193.92 31.47, 199.56 29.08 C205.19 26.7, 210.91 24.45, 216.67 22.35 C222.44 20.25, 228.28 18.28, 234.16 16.47 C240.04 14.66, 245.99 12.99, 251.97 11.47 C257.95 9.95, 263.99 8.58, 270.05 7.36 C276.11 6.14, 282.22 5.06, 288.35 4.15 C294.47 3.23, 300.64 2.46, 306.81 1.84 C312.98 1.23, 319.18 0.77, 325.38 0.46 C331.58 0.15, 337.79 0, 344 0 C350.21 0, 356.42 0.15, 362.62 0.46 C368.82 0.77, 375.02 1.23, 381.19 1.84 C387.36 2.46, 393.53 3.23, 399.65 4.15 C405.78 5.06, 411.89 6.14, 417.95 7.36 C424.01 8.58, 430.05 9.95, 436.03 11.47 C442.01 12.99, 447.96 14.66, 453.84 16.47 C459.72 18.28, 465.56 20.25, 471.33 22.35 C477.09 24.45, 482.81 26.7, 488.44 29.08 C494.08 31.47, 499.65 33.99, 505.13 36.65 C510.62 39.31, 516.03 42.11, 521.35 45.04 C526.67 47.97, 531.91 51.03, 537.05 54.22 C542.19 57.41, 547.24 60.73, 552.18 64.16 C557.12 67.6, 561.97 71.16, 566.7 74.84 C571.43 78.52, 576.06 82.31, 580.57 86.22 C585.08 90.13, 589.47 94.15, 593.74 98.27 C598.01 102.39, 602.16 106.63, 606.18 110.96 C610.2 115.28, 614.1 119.72, 617.86 124.24 C621.61 128.76, 625.24 133.38, 628.72 138.08 C632.21 142.78, 635.56 147.57, 638.76 152.44 C641.96 157.3, 645.02 162.26, 647.93 167.27 C650.84 172.29, 653.6 177.39, 656.21 182.54 C658.81 187.7, 661.27 192.92, 663.57 198.2 C665.87 203.47, 668.01 208.81, 669.99 214.19 C671.97 219.57, 673.8 225.01, 675.46 230.48 C677.12 235.96, 678.62 241.48, 679.96 247.02 C681.29 252.57, 682.46 258.16, 683.47 263.76 C684.47 269.36, 685.31 275, 685.98 280.65 C686.65 286.29, 687.16 291.96, 687.5 297.63 C687.83 303.3, 688 308.99, 688 314.67" stroke="none" stroke-width="0" fill="#cdebd3"></path><path d="M688 314.67 C688 320.35, 687.83 326.03, 687.5 331.7 C687.16 337.37, 686.65 343.04, 685.98 348.69 C685.31 354.33, 684.47 359.97, 683.47 365.57 C682.46 371.18, 681.29 376.76, 679.96 382.31 C678.62 387.86, 677.12 393.38, 675.46 398.85 C673.8 404.32, 671.97 409.76, 669.99 415.14 C668.01 420.52, 665.87 425.86, 663.57 431.14 C661.27 436.41, 658.81 441.64, 656.21 446.79 C653.6 451.95, 650.84 457.04, 647.93 462.06 C645.02 467.08, 641.96 472.03, 638.76 476.89 C635.56 481.76, 632.21 486.55, 628.72 491.25 C625.24 495.95, 621.61 500.57, 617.86 505.09 C614.1 509.62, 610.2 514.05, 606.18 518.38 C602.16 522.71, 598.01 526.94, 593.74 531.06 C589.47 535.19, 585.08 539.21, 580.57 543.11 C576.06 547.02, 571.43 550.82, 566.7 554.49 C561.97 558.17, 557.12 561.73, 552.18 565.17 C547.24 568.61, 542.19 571.93, 537.05 575.11 C531.91 578.3, 526.67 581.36, 521.35 584.29 C516.03 587.22, 510.62 590.02, 505.13 592.68 C499.65 595.34, 494.08 597.87, 488.44 600.25 C482.81 602.63, 477.09 604.88, 471.33 606.98 C465.56 609.09, 459.72 611.05, 453.84 612.86 C447.96 614.67, 442.01 616.34, 436.03 617.86 C430.05 619.38, 424.01 620.76, 417.95 621.98 C411.89 623.2, 405.78 624.27, 399.65 625.19 C393.53 626.11, 387.36 626.87, 381.19 627.49 C375.02 628.1, 368.82 628.56, 362.62 628.87 C356.42 629.18, 350.21 629.33, 344 629.33 C337.79 629.33, 331.58 629.18, 325.38 628.87 C319.18 628.56, 312.98 628.1, 306.81 627.49 C300.64 626.87, 294.47 626.11, 288.35 625.19 C282.22 624.27, 276.11 623.2, 270.05 621.98 C263.99 620.76, 257.95 619.38, 251.97 617.86 C245.99 616.34, 240.04 614.67, 234.16 612.86 C228.28 611.05, 222.44 609.09, 216.67 606.98 C210.91 604.88, 205.19 602.63, 199.56 600.25 C193.92 597.87, 188.35 595.34, 182.87 592.68 C177.38 590.02, 171.97 587.22, 166.65 584.29 C161.33 581.36, 156.09 578.3, 150.95 575.11 C145.81 571.93, 140.76 568.61, 135.82 565.17 C130.88 561.73, 126.03 558.17, 121.3 554.49 C116.57 550.82, 111.94 547.02, 107.43 543.11 C102.92 539.21, 98.53 535.19, 94.26 531.06 C89.99 526.94, 85.84 522.71, 81.82 518.38 C77.8 514.05, 73.9 509.62, 70.14 505.09 C66.39 500.57, 62.76 495.95, 59.27 491.25 C55.79 486.55, 52.44 481.76, 49.24 476.89 C46.04 472.03, 42.98 467.08, 40.07 462.06 C37.16 457.04, 34.4 451.95, 31.79 446.79 C29.19 441.64, 26.73 436.41, 24.43 431.14 C22.13 425.86, 19.99 420.52, 18.01 415.14 C16.03 409.76, 14.2 404.32, 12.54 398.85 C10.88 393.38, 9.38 387.86, 8.04 382.31 C6.71 376.76, 5.54 371.18, 4.53 365.57 C3.53 359.97, 2.69 354.33, 2.02 348.69 C1.35 343.04, 0.84 337.37, 0.5 331.7 C0.17 326.03, 0 320.35, 0 314.67 C0 308.99, 0.17 303.3, 0.5 297.63 C0.84 291.96, 1.35 286.29, 2.02 280.65 C2.69 275, 3.53 269.36, 4.53 263.76 C5.54 258.16, 6.71 252.57, 8.04 247.02 C9.38 241.48, 10.88 235.96, 12.54 230.48 C14.2 225.01, 16.03 219.57, 18.01 214.19 C19.99 208.81, 22.13 203.47, 24.43 198.2 C26.73 192.92, 29.19 187.7, 31.79 182.54 C34.4 177.39, 37.16 172.29, 40.07 167.27 C42.98 162.26, 46.04 157.3, 49.24 152.44 C52.44 147.57, 55.79 142.78, 59.27 138.08 C62.76 133.38, 66.39 128.76, 70.14 124.24 C73.9 119.72, 77.8 115.28, 81.82 110.96 C85.84 106.63, 89.99 102.39, 94.26 98.27 C98.53 94.15, 102.92 90.13, 107.43 86.22 C111.94 82.31, 116.57 78.52, 121.3 74.84 C126.03 71.16, 130.88 67.6, 135.82 64.16 C140.76 60.73, 145.81 57.41, 150.95 54.22 C156.09 51.03, 161.33 47.97, 166.65 45.04 C171.97 42.11, 177.38 39.31, 182.87 36.65 C188.35 33.99, 193.92 31.47, 199.56 29.08 C205.19 26.7, 210.91 24.45, 216.67 22.35 C222.44 20.25, 228.28 18.28, 234.16 16.47 C240.04 14.66, 245.99 12.99, 251.97 11.47 C257.95 9.95, 263.99 8.58, 270.05 7.36 C276.11 6.14, 282.22 5.06, 288.35 4.15 C294.47 3.23, 300.64 2.46, 306.81 1.84 C312.98 1.23, 319.18 0.77, 325.38 0.46 C331.58 0.15, 337.79 0, 344 0 C350.21 0, 356.42 0.15, 362.62 0.46 C368.82 0.77, 375.02 1.23, 381.19 1.84 C387.36 2.46, 393.53 3.23, 399.65 4.15 C405.78 5.06, 411.89 6.14, 417.95 7.36 C424.01 8.58, 430.05 9.95, 436.03 11.47 C442.01 12.99, 447.96 14.66, 453.84 16.47 C459.72 18.28, 465.56 20.25, 471.33 22.35 C477.09 24.45, 482.81 26.7, 488.44 29.08 C494.08 31.47, 499.65 33.99, 505.13 36.65 C510.62 39.31, 516.03 42.11, 521.35 45.04 C526.67 47.97, 531.91 51.03, 537.05 54.22 C542.19 57.41, 547.24 60.73, 552.18 64.16 C557.12 67.6, 561.97 71.16, 566.7 74.84 C571.43 78.52, 576.06 82.31, 580.57 86.22 C585.08 90.13, 589.47 94.15, 593.74 98.27 C598.01 102.39, 602.16 106.63, 606.18 110.96 C610.2 115.28, 614.1 119.72, 617.86 124.24 C621.61 128.76, 625.24 133.38, 628.72 138.08 C632.21 142.78, 635.56 147.57, 638.76 152.44 C641.96 157.3, 645.02 162.26, 647.93 167.27 C650.84 172.29, 653.6 177.39, 656.21 182.54 C658.81 187.7, 661.27 192.92, 663.57 198.2 C665.87 203.47, 668.01 208.81, 669.99 214.19 C671.97 219.57, 673.8 225.01, 675.46 230.48 C677.12 235.96, 678.62 241.48, 679.96 247.02 C681.29 252.57, 682.46 258.16, 683.47 263.76 C684.47 269.36, 685.31 275, 685.98 280.65 C686.65 286.29, 687.16 291.96, 687.5 297.63 C687.83 303.3, 688 308.99, 688 314.67" stroke="transparent" stroke-width="1" fill="none"></path></g></svg>