<svg version="1.1" xmlns="http://www.w3.org/2000/svg" viewBox="0 0 1123.9999999999998 943.1999816894531" width="1123.9999999999998" height="943.1999816894531">
  <!-- svg-source:excalidraw -->
  
  <defs>
    <style class="style-fonts">
      @font-face {
        font-family: "Virgil";
        src: url("https://excalidraw.com/Virgil.woff2");
      }
      @font-face {
        font-family: "Cascadia";
        src: url("https://excalidraw.com/Cascadia.woff2");
      }
    </style>
    
  </defs>
  <g stroke-linecap="round" transform="translate(10 10) rotate(0 551.9999999999999 461.59999084472656)"><path d="M32 0 M32 0 C303.57 2.62, 575.56 3.26, 1072 0 M32 0 C414.76 -1.69, 798.4 -1.44, 1072 0 M1072 0 C1094.82 0.09, 1105.18 10.85, 1104 32 M1072 0 C1094.96 -1.56, 1105.17 9.98, 1104 32 M1104 32 C1104.91 267.32, 1106.12 503.53, 1104 891.2 M1104 32 C1104.01 211.29, 1104.04 390.01, 1104 891.2 M1104 891.2 C1104.91 911.32, 1093.23 924.8, 1072 923.2 M1104 891.2 C1105.43 914.78, 1094.68 921.02, 1072 923.2 M1072 923.2 C751.7 927.25, 429.25 927.75, 32 923.2 M1072 923.2 C841.73 922.96, 610.86 923.1, 32 923.2 M32 923.2 C12.53 925.16, -1.4 913.49, 0 891.2 M32 923.2 C8.53 923.91, 2.27 912.09, 0 891.2 M0 891.2 C0.87 656, 0.96 418.87, 0 32 M0 891.2 C0.12 701.83, -0.28 512.34, 0 32 M0 32 C-0.66 11.37, 8.98 1.48, 32 0 M0 32 C2.08 12.22, 11.17 1.77, 32 0" stroke="#ffffff" stroke-width="1" fill="none"></path></g><g transform="translate(208.39990234374977 379.5999450683594) rotate(0 326.115234375 47.711967773437664)"><text x="0" y="0" font-family="Cascadia, Segoe UI Emoji" font-size="79.51994628906253px" fill="#ffffff" text-anchor="start" style="white-space: pre;" direction="ltr" dominant-baseline="text-before-edge">IMAGE REQUIRED</text></g></svg>