<svg version="1.1" xmlns="http://www.w3.org/2000/svg" viewBox="0 0 1666.3988342285156 1384.7999420166007" width="1666.3988342285156" height="1384.7999420166007">
  <!-- svg-source:excalidraw -->
  
  <defs>
    <style class="style-fonts">
      @font-face {
        font-family: "Virgil";
        src: url("https://excalidraw.com/Virgil.woff2");
      }
      @font-face {
        font-family: "Cascadia";
        src: url("https://excalidraw.com/Cascadia.woff2");
      }
    </style>
    
  </defs>
  <g stroke-linecap="round" transform="translate(10 10) rotate(0 823.1994171142578 682.3999710083003)"><path d="M0 0 L1646.4 0 L1646.4 1364.8 L0 1364.8" stroke="none" stroke-width="0" fill="#e5f2e8"></path><path d="M0 0 C629 0, 1257.99 0, 1646.4 0 M0 0 C633.65 0, 1267.29 0, 1646.4 0 M1646.4 0 C1646.4 501.53, 1646.4 1003.07, 1646.4 1364.8 M1646.4 0 C1646.4 401.91, 1646.4 803.83, 1646.4 1364.8 M1646.4 1364.8 C1008.21 1364.8, 370.02 1364.8, 0 1364.8 M1646.4 1364.8 C1034.63 1364.8, 422.85 1364.8, 0 1364.8 M0 1364.8 C0 1052.83, 0 740.86, 0 0 M0 1364.8 C0 983.23, 0 601.66, 0 0" stroke="transparent" stroke-width="1" fill="none"></path></g><g stroke-linecap="round" transform="translate(692.59915161133 13.199966430664062) rotate(0 465.5999755859375 436.80003356933594)"><path d="M931.2 436.8 C931.2 443.52, 931.03 450.26, 930.7 456.97 C930.37 463.69, 929.88 470.41, 929.21 477.1 C928.55 483.8, 927.73 490.49, 926.74 497.15 C925.74 503.81, 924.59 510.45, 923.27 517.06 C921.96 523.67, 920.47 530.26, 918.83 536.81 C917.19 543.35, 915.39 549.87, 913.43 556.34 C911.46 562.8, 909.34 569.24, 907.06 575.61 C904.79 581.99, 902.35 588.32, 899.76 594.59 C897.17 600.86, 894.42 607.08, 891.53 613.23 C888.63 619.38, 885.58 625.48, 882.39 631.5 C879.19 637.52, 875.85 643.47, 872.36 649.35 C868.87 655.22, 865.23 661.03, 861.46 666.75 C857.69 672.46, 853.77 678.1, 849.72 683.65 C845.67 689.2, 841.48 694.66, 837.16 700.03 C832.84 705.4, 828.38 710.68, 823.8 715.85 C819.22 721.02, 814.51 726.1, 809.68 731.07 C804.85 736.04, 799.9 740.91, 794.83 745.66 C789.76 750.42, 784.57 755.07, 779.27 759.6 C773.98 764.13, 768.56 768.55, 763.05 772.85 C757.53 777.14, 751.91 781.32, 746.19 785.37 C740.47 789.43, 734.64 793.36, 728.73 797.16 C722.81 800.96, 716.8 804.64, 710.71 808.17 C704.61 811.71, 698.42 815.13, 692.16 818.4 C685.9 821.67, 679.55 824.81, 673.14 827.81 C666.72 830.8, 660.22 833.67, 653.67 836.38 C647.11 839.1, 640.48 841.67, 633.79 844.1 C627.11 846.53, 620.36 848.82, 613.56 850.96 C606.77 853.09, 599.91 855.09, 593.02 856.93 C586.12 858.77, 579.18 860.46, 572.2 862 C565.22 863.54, 558.2 864.93, 551.15 866.16 C544.11 867.4, 537.02 868.48, 529.93 869.41 C522.83 870.34, 515.7 871.12, 508.56 871.74 C501.42 872.36, 494.26 872.82, 487.1 873.13 C479.94 873.44, 472.77 873.6, 465.6 873.6 C458.43 873.6, 451.26 873.44, 444.1 873.13 C436.94 872.82, 429.78 872.36, 422.64 871.74 C415.5 871.12, 408.37 870.34, 401.27 869.41 C394.18 868.48, 387.09 867.4, 380.05 866.16 C373 864.93, 365.98 863.54, 359 862 C352.02 860.46, 345.08 858.77, 338.18 856.93 C331.29 855.09, 324.43 853.09, 317.64 850.96 C310.84 848.82, 304.09 846.53, 297.41 844.1 C290.72 841.67, 284.09 839.1, 277.53 836.38 C270.98 833.67, 264.48 830.8, 258.06 827.81 C251.65 824.81, 245.3 821.67, 239.04 818.4 C232.78 815.13, 226.59 811.71, 220.49 808.17 C214.4 804.64, 208.39 800.96, 202.47 797.16 C196.56 793.36, 190.73 789.43, 185.01 785.37 C179.29 781.32, 173.67 777.14, 168.15 772.85 C162.64 768.55, 157.22 764.13, 151.93 759.6 C146.63 755.07, 141.44 750.42, 136.37 745.66 C131.3 740.91, 126.35 736.04, 121.52 731.07 C116.69 726.1, 111.98 721.02, 107.4 715.85 C102.82 710.68, 98.36 705.4, 94.04 700.03 C89.72 694.66, 85.53 689.2, 81.48 683.65 C77.43 678.1, 73.51 672.46, 69.74 666.75 C65.97 661.03, 62.33 655.22, 58.84 649.35 C55.35 643.47, 52.01 637.52, 48.81 631.5 C45.62 625.48, 42.57 619.38, 39.67 613.23 C36.78 607.08, 34.03 600.86, 31.44 594.59 C28.85 588.32, 26.41 581.99, 24.14 575.61 C21.86 569.24, 19.74 562.8, 17.77 556.34 C15.81 549.87, 14.01 543.35, 12.37 536.81 C10.73 530.26, 9.24 523.67, 7.93 517.06 C6.61 510.45, 5.46 503.81, 4.46 497.15 C3.47 490.49, 2.65 483.8, 1.99 477.1 C1.32 470.41, 0.83 463.69, 0.5 456.97 C0.17 450.26, 0 443.52, 0 436.8 C0 430.08, 0.17 423.34, 0.5 416.63 C0.83 409.91, 1.32 403.19, 1.99 396.5 C2.65 389.8, 3.47 383.11, 4.46 376.45 C5.46 369.79, 6.61 363.15, 7.93 356.54 C9.24 349.93, 10.73 343.34, 12.37 336.79 C14.01 330.25, 15.81 323.73, 17.77 317.26 C19.74 310.8, 21.86 304.36, 24.14 297.99 C26.41 291.61, 28.85 285.28, 31.44 279.01 C34.03 272.74, 36.78 266.52, 39.67 260.37 C42.57 254.22, 45.62 248.12, 48.81 242.1 C52.01 236.08, 55.35 230.13, 58.84 224.25 C62.33 218.38, 65.97 212.57, 69.74 206.85 C73.51 201.14, 77.43 195.5, 81.48 189.95 C85.53 184.4, 89.72 178.94, 94.04 173.57 C98.36 168.2, 102.82 162.92, 107.4 157.75 C111.98 152.58, 116.69 147.5, 121.52 142.53 C126.35 137.56, 131.3 132.69, 136.37 127.94 C141.44 123.18, 146.63 118.53, 151.93 114 C157.22 109.47, 162.64 105.05, 168.15 100.75 C173.67 96.46, 179.29 92.28, 185.01 88.23 C190.73 84.17, 196.56 80.24, 202.47 76.44 C208.39 72.64, 214.4 68.97, 220.49 65.43 C226.59 61.89, 232.78 58.47, 239.04 55.2 C245.3 51.93, 251.65 48.79, 258.06 45.79 C264.48 42.8, 270.98 39.93, 277.53 37.22 C284.09 34.5, 290.72 31.93, 297.41 29.5 C304.09 27.07, 310.84 24.78, 317.64 22.64 C324.43 20.51, 331.29 18.51, 338.18 16.67 C345.08 14.83, 352.02 13.14, 359 11.6 C365.98 10.06, 373 8.67, 380.05 7.44 C387.09 6.2, 394.18 5.12, 401.27 4.19 C408.37 3.26, 415.5 2.48, 422.64 1.86 C429.78 1.24, 436.94 0.78, 444.1 0.47 C451.26 0.16, 458.43 0, 465.6 0 C472.77 0, 479.94 0.16, 487.1 0.47 C494.26 0.78, 501.42 1.24, 508.56 1.86 C515.7 2.48, 522.83 3.26, 529.93 4.19 C537.02 5.12, 544.11 6.2, 551.15 7.44 C558.2 8.67, 565.22 10.06, 572.2 11.6 C579.18 13.14, 586.12 14.83, 593.02 16.67 C599.91 18.51, 606.77 20.51, 613.56 22.64 C620.36 24.78, 627.11 27.07, 633.79 29.5 C640.48 31.93, 647.11 34.5, 653.67 37.22 C660.22 39.93, 666.72 42.8, 673.14 45.79 C679.55 48.79, 685.9 51.93, 692.16 55.2 C698.42 58.47, 704.61 61.89, 710.71 65.43 C716.8 68.97, 722.81 72.64, 728.73 76.44 C734.64 80.24, 740.47 84.17, 746.19 88.23 C751.91 92.28, 757.53 96.46, 763.05 100.75 C768.56 105.05, 773.98 109.47, 779.27 114 C784.57 118.53, 789.76 123.18, 794.83 127.94 C799.9 132.69, 804.85 137.56, 809.68 142.53 C814.51 147.5, 819.22 152.58, 823.8 157.75 C828.38 162.92, 832.84 168.2, 837.16 173.57 C841.48 178.94, 845.67 184.4, 849.72 189.95 C853.77 195.5, 857.69 201.14, 861.46 206.85 C865.23 212.57, 868.87 218.38, 872.36 224.25 C875.85 230.13, 879.19 236.08, 882.39 242.1 C885.58 248.12, 888.63 254.22, 891.53 260.37 C894.42 266.52, 897.17 272.74, 899.76 279.01 C902.35 285.28, 904.79 291.61, 907.06 297.99 C909.34 304.36, 911.46 310.8, 913.43 317.26 C915.39 323.73, 917.19 330.25, 918.83 336.79 C920.47 343.34, 921.96 349.93, 923.27 356.54 C924.59 363.15, 925.74 369.79, 926.74 376.45 C927.73 383.11, 928.55 389.8, 929.21 396.5 C929.88 403.19, 930.37 409.91, 930.7 416.63 C931.03 423.34, 931.2 430.08, 931.2 436.8" stroke="none" stroke-width="0" fill="#ecd5ac"></path><path d="M931.2 436.8 C931.2 443.52, 931.03 450.26, 930.7 456.97 C930.37 463.69, 929.88 470.41, 929.21 477.1 C928.55 483.8, 927.73 490.49, 926.74 497.15 C925.74 503.81, 924.59 510.45, 923.27 517.06 C921.96 523.67, 920.47 530.26, 918.83 536.81 C917.19 543.35, 915.39 549.87, 913.43 556.34 C911.46 562.8, 909.34 569.24, 907.06 575.61 C904.79 581.99, 902.35 588.32, 899.76 594.59 C897.17 600.86, 894.42 607.08, 891.53 613.23 C888.63 619.38, 885.58 625.48, 882.39 631.5 C879.19 637.52, 875.85 643.47, 872.36 649.35 C868.87 655.22, 865.23 661.03, 861.46 666.75 C857.69 672.46, 853.77 678.1, 849.72 683.65 C845.67 689.2, 841.48 694.66, 837.16 700.03 C832.84 705.4, 828.38 710.68, 823.8 715.85 C819.22 721.02, 814.51 726.1, 809.68 731.07 C804.85 736.04, 799.9 740.91, 794.83 745.66 C789.76 750.42, 784.57 755.07, 779.27 759.6 C773.98 764.13, 768.56 768.55, 763.05 772.85 C757.53 777.14, 751.91 781.32, 746.19 785.37 C740.47 789.43, 734.64 793.36, 728.73 797.16 C722.81 800.96, 716.8 804.64, 710.71 808.17 C704.61 811.71, 698.42 815.13, 692.16 818.4 C685.9 821.67, 679.55 824.81, 673.14 827.81 C666.72 830.8, 660.22 833.67, 653.67 836.38 C647.11 839.1, 640.48 841.67, 633.79 844.1 C627.11 846.53, 620.36 848.82, 613.56 850.96 C606.77 853.09, 599.91 855.09, 593.02 856.93 C586.12 858.77, 579.18 860.46, 572.2 862 C565.22 863.54, 558.2 864.93, 551.15 866.16 C544.11 867.4, 537.02 868.48, 529.93 869.41 C522.83 870.34, 515.7 871.12, 508.56 871.74 C501.42 872.36, 494.26 872.82, 487.1 873.13 C479.94 873.44, 472.77 873.6, 465.6 873.6 C458.43 873.6, 451.26 873.44, 444.1 873.13 C436.94 872.82, 429.78 872.36, 422.64 871.74 C415.5 871.12, 408.37 870.34, 401.27 869.41 C394.18 868.48, 387.09 867.4, 380.05 866.16 C373 864.93, 365.98 863.54, 359 862 C352.02 860.46, 345.08 858.77, 338.18 856.93 C331.29 855.09, 324.43 853.09, 317.64 850.96 C310.84 848.82, 304.09 846.53, 297.41 844.1 C290.72 841.67, 284.09 839.1, 277.53 836.38 C270.98 833.67, 264.48 830.8, 258.06 827.81 C251.65 824.81, 245.3 821.67, 239.04 818.4 C232.78 815.13, 226.59 811.71, 220.49 808.17 C214.4 804.64, 208.39 800.96, 202.47 797.16 C196.56 793.36, 190.73 789.43, 185.01 785.37 C179.29 781.32, 173.67 777.14, 168.15 772.85 C162.64 768.55, 157.22 764.13, 151.93 759.6 C146.63 755.07, 141.44 750.42, 136.37 745.66 C131.3 740.91, 126.35 736.04, 121.52 731.07 C116.69 726.1, 111.98 721.02, 107.4 715.85 C102.82 710.68, 98.36 705.4, 94.04 700.03 C89.72 694.66, 85.53 689.2, 81.48 683.65 C77.43 678.1, 73.51 672.46, 69.74 666.75 C65.97 661.03, 62.33 655.22, 58.84 649.35 C55.35 643.47, 52.01 637.52, 48.81 631.5 C45.62 625.48, 42.57 619.38, 39.67 613.23 C36.78 607.08, 34.03 600.86, 31.44 594.59 C28.85 588.32, 26.41 581.99, 24.14 575.61 C21.86 569.24, 19.74 562.8, 17.77 556.34 C15.81 549.87, 14.01 543.35, 12.37 536.81 C10.73 530.26, 9.24 523.67, 7.93 517.06 C6.61 510.45, 5.46 503.81, 4.46 497.15 C3.47 490.49, 2.65 483.8, 1.99 477.1 C1.32 470.41, 0.83 463.69, 0.5 456.97 C0.17 450.26, 0 443.52, 0 436.8 C0 430.08, 0.17 423.34, 0.5 416.63 C0.83 409.91, 1.32 403.19, 1.99 396.5 C2.65 389.8, 3.47 383.11, 4.46 376.45 C5.46 369.79, 6.61 363.15, 7.93 356.54 C9.24 349.93, 10.73 343.34, 12.37 336.79 C14.01 330.25, 15.81 323.73, 17.77 317.26 C19.74 310.8, 21.86 304.36, 24.14 297.99 C26.41 291.61, 28.85 285.28, 31.44 279.01 C34.03 272.74, 36.78 266.52, 39.67 260.37 C42.57 254.22, 45.62 248.12, 48.81 242.1 C52.01 236.08, 55.35 230.13, 58.84 224.25 C62.33 218.38, 65.97 212.57, 69.74 206.85 C73.51 201.14, 77.43 195.5, 81.48 189.95 C85.53 184.4, 89.72 178.94, 94.04 173.57 C98.36 168.2, 102.82 162.92, 107.4 157.75 C111.98 152.58, 116.69 147.5, 121.52 142.53 C126.35 137.56, 131.3 132.69, 136.37 127.94 C141.44 123.18, 146.63 118.53, 151.93 114 C157.22 109.47, 162.64 105.05, 168.15 100.75 C173.67 96.46, 179.29 92.28, 185.01 88.23 C190.73 84.17, 196.56 80.24, 202.47 76.44 C208.39 72.64, 214.4 68.97, 220.49 65.43 C226.59 61.89, 232.78 58.47, 239.04 55.2 C245.3 51.93, 251.65 48.79, 258.06 45.79 C264.48 42.8, 270.98 39.93, 277.53 37.22 C284.09 34.5, 290.72 31.93, 297.41 29.5 C304.09 27.07, 310.84 24.78, 317.64 22.64 C324.43 20.51, 331.29 18.51, 338.18 16.67 C345.08 14.83, 352.02 13.14, 359 11.6 C365.98 10.06, 373 8.67, 380.05 7.44 C387.09 6.2, 394.18 5.12, 401.27 4.19 C408.37 3.26, 415.5 2.48, 422.64 1.86 C429.78 1.24, 436.94 0.78, 444.1 0.47 C451.26 0.16, 458.43 0, 465.6 0 C472.77 0, 479.94 0.16, 487.1 0.47 C494.26 0.78, 501.42 1.24, 508.56 1.86 C515.7 2.48, 522.83 3.26, 529.93 4.19 C537.02 5.12, 544.11 6.2, 551.15 7.44 C558.2 8.67, 565.22 10.06, 572.2 11.6 C579.18 13.14, 586.12 14.83, 593.02 16.67 C599.91 18.51, 606.77 20.51, 613.56 22.64 C620.36 24.78, 627.11 27.07, 633.79 29.5 C640.48 31.93, 647.11 34.5, 653.67 37.22 C660.22 39.93, 666.72 42.8, 673.14 45.79 C679.55 48.79, 685.9 51.93, 692.16 55.2 C698.42 58.47, 704.61 61.89, 710.71 65.43 C716.8 68.97, 722.81 72.64, 728.73 76.44 C734.64 80.24, 740.47 84.17, 746.19 88.23 C751.91 92.28, 757.53 96.46, 763.05 100.75 C768.56 105.05, 773.98 109.47, 779.27 114 C784.57 118.53, 789.76 123.18, 794.83 127.94 C799.9 132.69, 804.85 137.56, 809.68 142.53 C814.51 147.5, 819.22 152.58, 823.8 157.75 C828.38 162.92, 832.84 168.2, 837.16 173.57 C841.48 178.94, 845.67 184.4, 849.72 189.95 C853.77 195.5, 857.69 201.14, 861.46 206.85 C865.23 212.57, 868.87 218.38, 872.36 224.25 C875.85 230.13, 879.19 236.08, 882.39 242.1 C885.58 248.12, 888.63 254.22, 891.53 260.37 C894.42 266.52, 897.17 272.74, 899.76 279.01 C902.35 285.28, 904.79 291.61, 907.06 297.99 C909.34 304.36, 911.46 310.8, 913.43 317.26 C915.39 323.73, 917.19 330.25, 918.83 336.79 C920.47 343.34, 921.96 349.93, 923.27 356.54 C924.59 363.15, 925.74 369.79, 926.74 376.45 C927.73 383.11, 928.55 389.8, 929.21 396.5 C929.88 403.19, 930.37 409.91, 930.7 416.63 C931.03 423.34, 931.2 430.08, 931.2 436.8" stroke="transparent" stroke-width="1" fill="none"></path></g><g stroke-linecap="round" transform="translate(28.799957275390057 590.7999725341788) rotate(0 427.9999694824219 387.99996948242233)"><path d="M856 388 C856 394.15, 855.84 400.31, 855.52 406.46 C855.19 412.61, 854.71 418.76, 854.06 424.88 C853.42 431.01, 852.61 437.13, 851.64 443.22 C850.68 449.31, 849.55 455.39, 848.27 461.43 C846.98 467.47, 845.54 473.49, 843.94 479.47 C842.33 485.45, 840.58 491.41, 838.66 497.31 C836.75 503.22, 834.68 509.09, 832.46 514.9 C830.24 520.72, 827.86 526.49, 825.34 532.2 C822.82 537.92, 820.14 543.58, 817.32 549.18 C814.5 554.78, 811.53 560.32, 808.42 565.79 C805.31 571.26, 802.05 576.67, 798.66 582 C795.26 587.33, 791.73 592.59, 788.06 597.77 C784.39 602.95, 780.58 608.05, 776.64 613.06 C772.7 618.07, 768.63 623.01, 764.43 627.85 C760.23 632.68, 755.91 637.44, 751.46 642.09 C747.02 646.74, 742.44 651.3, 737.76 655.75 C733.07 660.2, 728.27 664.56, 723.35 668.81 C718.44 673.06, 713.41 677.2, 708.28 681.23 C703.15 685.26, 697.91 689.18, 692.57 692.99 C687.24 696.79, 681.79 700.49, 676.26 704.06 C670.73 707.63, 665.1 711.08, 659.39 714.41 C653.68 717.73, 647.88 720.94, 642 724.02 C636.12 727.09, 630.15 730.05, 624.12 732.87 C618.09 735.69, 611.97 738.38, 605.8 740.94 C599.62 743.49, 593.37 745.92, 587.07 748.21 C580.77 750.49, 574.4 752.65, 567.99 754.66 C561.57 756.67, 555.09 758.55, 548.58 760.28 C542.07 762.02, 535.5 763.61, 528.9 765.06 C522.31 766.51, 515.67 767.82, 509 768.99 C502.33 770.15, 495.63 771.17, 488.91 772.05 C482.19 772.93, 475.44 773.66, 468.68 774.24 C461.93 774.83, 455.15 775.27, 448.37 775.56 C441.58 775.85, 434.79 776, 428 776 C421.21 776, 414.42 775.85, 407.63 775.56 C400.85 775.27, 394.07 774.83, 387.32 774.24 C380.56 773.66, 373.81 772.93, 367.09 772.05 C360.37 771.17, 353.67 770.15, 347 768.99 C340.33 767.82, 333.69 766.51, 327.1 765.06 C320.5 763.61, 313.93 762.02, 307.42 760.28 C300.91 758.55, 294.43 756.67, 288.01 754.66 C281.6 752.65, 275.23 750.49, 268.93 748.21 C262.63 745.92, 256.38 743.49, 250.2 740.94 C244.03 738.38, 237.91 735.69, 231.88 732.87 C225.85 730.05, 219.88 727.09, 214 724.02 C208.12 720.94, 202.32 717.73, 196.61 714.41 C190.89 711.08, 185.27 707.63, 179.74 704.06 C174.21 700.49, 168.76 696.79, 163.43 692.99 C158.09 689.18, 152.85 685.26, 147.72 681.23 C142.59 677.2, 137.56 673.06, 132.65 668.81 C127.73 664.56, 122.93 660.2, 118.24 655.75 C113.56 651.3, 108.98 646.74, 104.54 642.09 C100.09 637.44, 95.77 632.68, 91.57 627.85 C87.37 623.01, 83.3 618.07, 79.36 613.06 C75.42 608.05, 71.61 602.95, 67.94 597.77 C64.27 592.59, 60.74 587.33, 57.34 582 C53.95 576.67, 50.69 571.26, 47.58 565.79 C44.47 560.32, 41.5 554.78, 38.68 549.18 C35.86 543.58, 33.18 537.92, 30.66 532.2 C28.14 526.49, 25.76 520.72, 23.54 514.9 C21.32 509.09, 19.25 503.22, 17.34 497.31 C15.42 491.41, 13.67 485.45, 12.06 479.47 C10.46 473.49, 9.02 467.47, 7.73 461.43 C6.45 455.39, 5.32 449.31, 4.36 443.22 C3.39 437.13, 2.58 431.01, 1.94 424.88 C1.29 418.76, 0.81 412.61, 0.48 406.46 C0.16 400.31, 0 394.15, 0 388 C0 381.85, 0.16 375.69, 0.48 369.54 C0.81 363.39, 1.29 357.24, 1.94 351.12 C2.58 344.99, 3.39 338.87, 4.36 332.78 C5.32 326.69, 6.45 320.61, 7.73 314.57 C9.02 308.53, 10.46 302.51, 12.06 296.53 C13.67 290.55, 15.42 284.59, 17.34 278.69 C19.25 272.78, 21.32 266.91, 23.54 261.1 C25.76 255.28, 28.14 249.51, 30.66 243.79 C33.18 238.08, 35.86 232.42, 38.68 226.82 C41.5 221.22, 44.47 215.68, 47.58 210.21 C50.69 204.74, 53.95 199.33, 57.34 194 C60.74 188.67, 64.27 183.41, 67.94 178.23 C71.61 173.05, 75.42 167.95, 79.36 162.94 C83.3 157.93, 87.37 152.99, 91.57 148.15 C95.77 143.32, 100.09 138.56, 104.54 133.91 C108.98 129.26, 113.56 124.7, 118.24 120.25 C122.93 115.8, 127.73 111.44, 132.65 107.19 C137.56 102.94, 142.59 98.8, 147.72 94.77 C152.85 90.74, 158.09 86.82, 163.43 83.01 C168.76 79.21, 174.21 75.51, 179.74 71.94 C185.27 68.37, 190.89 64.92, 196.61 61.59 C202.32 58.27, 208.12 55.06, 214 51.98 C219.88 48.91, 225.85 45.95, 231.88 43.13 C237.91 40.31, 244.03 37.62, 250.2 35.06 C256.38 32.51, 262.63 30.08, 268.93 27.79 C275.23 25.51, 281.6 23.35, 288.01 21.34 C294.43 19.33, 300.91 17.45, 307.42 15.72 C313.93 13.98, 320.5 12.39, 327.1 10.94 C333.69 9.49, 340.33 8.18, 347 7.01 C353.67 5.85, 360.37 4.83, 367.09 3.95 C373.81 3.07, 380.56 2.34, 387.32 1.76 C394.07 1.17, 400.85 0.73, 407.63 0.44 C414.42 0.15, 421.21 0, 428 0 C434.79 0, 441.58 0.15, 448.37 0.44 C455.15 0.73, 461.93 1.17, 468.68 1.76 C475.44 2.34, 482.19 3.07, 488.91 3.95 C495.63 4.83, 502.33 5.85, 509 7.01 C515.67 8.18, 522.31 9.49, 528.9 10.94 C535.5 12.39, 542.07 13.98, 548.58 15.72 C555.09 17.45, 561.57 19.33, 567.99 21.34 C574.4 23.35, 580.77 25.51, 587.07 27.79 C593.37 30.08, 599.62 32.51, 605.8 35.06 C611.97 37.62, 618.09 40.31, 624.12 43.13 C630.15 45.95, 636.12 48.91, 642 51.98 C647.88 55.06, 653.68 58.27, 659.39 61.59 C665.1 64.92, 670.73 68.37, 676.26 71.94 C681.79 75.51, 687.24 79.21, 692.57 83.01 C697.91 86.82, 703.15 90.74, 708.28 94.77 C713.41 98.8, 718.44 102.94, 723.35 107.19 C728.27 111.44, 733.07 115.8, 737.76 120.25 C742.44 124.7, 747.02 129.26, 751.46 133.91 C755.91 138.56, 760.23 143.32, 764.43 148.15 C768.63 152.99, 772.7 157.93, 776.64 162.94 C780.58 167.95, 784.39 173.05, 788.06 178.23 C791.73 183.41, 795.26 188.67, 798.66 194 C802.05 199.33, 805.31 204.74, 808.42 210.21 C811.53 215.68, 814.5 221.22, 817.32 226.82 C820.14 232.42, 822.82 238.08, 825.34 243.79 C827.86 249.51, 830.24 255.28, 832.46 261.1 C834.68 266.91, 836.75 272.78, 838.66 278.69 C840.58 284.59, 842.33 290.55, 843.94 296.53 C845.54 302.51, 846.98 308.53, 848.27 314.57 C849.55 320.61, 850.68 326.69, 851.64 332.78 C852.61 338.87, 853.42 344.99, 854.06 351.12 C854.71 357.24, 855.19 363.39, 855.52 369.54 C855.84 375.69, 856 381.85, 856 388" stroke="none" stroke-width="0" fill="#cdebd3"></path><path d="M856 388 C856 394.15, 855.84 400.31, 855.52 406.46 C855.19 412.61, 854.71 418.76, 854.06 424.88 C853.42 431.01, 852.61 437.13, 851.64 443.22 C850.68 449.31, 849.55 455.39, 848.27 461.43 C846.98 467.47, 845.54 473.49, 843.94 479.47 C842.33 485.45, 840.58 491.41, 838.66 497.31 C836.75 503.22, 834.68 509.09, 832.46 514.9 C830.24 520.72, 827.86 526.49, 825.34 532.2 C822.82 537.92, 820.14 543.58, 817.32 549.18 C814.5 554.78, 811.53 560.32, 808.42 565.79 C805.31 571.26, 802.05 576.67, 798.66 582 C795.26 587.33, 791.73 592.59, 788.06 597.77 C784.39 602.95, 780.58 608.05, 776.64 613.06 C772.7 618.07, 768.63 623.01, 764.43 627.85 C760.23 632.68, 755.91 637.44, 751.46 642.09 C747.02 646.74, 742.44 651.3, 737.76 655.75 C733.07 660.2, 728.27 664.56, 723.35 668.81 C718.44 673.06, 713.41 677.2, 708.28 681.23 C703.15 685.26, 697.91 689.18, 692.57 692.99 C687.24 696.79, 681.79 700.49, 676.26 704.06 C670.73 707.63, 665.1 711.08, 659.39 714.41 C653.68 717.73, 647.88 720.94, 642 724.02 C636.12 727.09, 630.15 730.05, 624.12 732.87 C618.09 735.69, 611.97 738.38, 605.8 740.94 C599.62 743.49, 593.37 745.92, 587.07 748.21 C580.77 750.49, 574.4 752.65, 567.99 754.66 C561.57 756.67, 555.09 758.55, 548.58 760.28 C542.07 762.02, 535.5 763.61, 528.9 765.06 C522.31 766.51, 515.67 767.82, 509 768.99 C502.33 770.15, 495.63 771.17, 488.91 772.05 C482.19 772.93, 475.44 773.66, 468.68 774.24 C461.93 774.83, 455.15 775.27, 448.37 775.56 C441.58 775.85, 434.79 776, 428 776 C421.21 776, 414.42 775.85, 407.63 775.56 C400.85 775.27, 394.07 774.83, 387.32 774.24 C380.56 773.66, 373.81 772.93, 367.09 772.05 C360.37 771.17, 353.67 770.15, 347 768.99 C340.33 767.82, 333.69 766.51, 327.1 765.06 C320.5 763.61, 313.93 762.02, 307.42 760.28 C300.91 758.55, 294.43 756.67, 288.01 754.66 C281.6 752.65, 275.23 750.49, 268.93 748.21 C262.63 745.92, 256.38 743.49, 250.2 740.94 C244.03 738.38, 237.91 735.69, 231.88 732.87 C225.85 730.05, 219.88 727.09, 214 724.02 C208.12 720.94, 202.32 717.73, 196.61 714.41 C190.89 711.08, 185.27 707.63, 179.74 704.06 C174.21 700.49, 168.76 696.79, 163.43 692.99 C158.09 689.18, 152.85 685.26, 147.72 681.23 C142.59 677.2, 137.56 673.06, 132.65 668.81 C127.73 664.56, 122.93 660.2, 118.24 655.75 C113.56 651.3, 108.98 646.74, 104.54 642.09 C100.09 637.44, 95.77 632.68, 91.57 627.85 C87.37 623.01, 83.3 618.07, 79.36 613.06 C75.42 608.05, 71.61 602.95, 67.94 597.77 C64.27 592.59, 60.74 587.33, 57.34 582 C53.95 576.67, 50.69 571.26, 47.58 565.79 C44.47 560.32, 41.5 554.78, 38.68 549.18 C35.86 543.58, 33.18 537.92, 30.66 532.2 C28.14 526.49, 25.76 520.72, 23.54 514.9 C21.32 509.09, 19.25 503.22, 17.34 497.31 C15.42 491.41, 13.67 485.45, 12.06 479.47 C10.46 473.49, 9.02 467.47, 7.73 461.43 C6.45 455.39, 5.32 449.31, 4.36 443.22 C3.39 437.13, 2.58 431.01, 1.94 424.88 C1.29 418.76, 0.81 412.61, 0.48 406.46 C0.16 400.31, 0 394.15, 0 388 C0 381.85, 0.16 375.69, 0.48 369.54 C0.81 363.39, 1.29 357.24, 1.94 351.12 C2.58 344.99, 3.39 338.87, 4.36 332.78 C5.32 326.69, 6.45 320.61, 7.73 314.57 C9.02 308.53, 10.46 302.51, 12.06 296.53 C13.67 290.55, 15.42 284.59, 17.34 278.69 C19.25 272.78, 21.32 266.91, 23.54 261.1 C25.76 255.28, 28.14 249.51, 30.66 243.79 C33.18 238.08, 35.86 232.42, 38.68 226.82 C41.5 221.22, 44.47 215.68, 47.58 210.21 C50.69 204.74, 53.95 199.33, 57.34 194 C60.74 188.67, 64.27 183.41, 67.94 178.23 C71.61 173.05, 75.42 167.95, 79.36 162.94 C83.3 157.93, 87.37 152.99, 91.57 148.15 C95.77 143.32, 100.09 138.56, 104.54 133.91 C108.98 129.26, 113.56 124.7, 118.24 120.25 C122.93 115.8, 127.73 111.44, 132.65 107.19 C137.56 102.94, 142.59 98.8, 147.72 94.77 C152.85 90.74, 158.09 86.82, 163.43 83.01 C168.76 79.21, 174.21 75.51, 179.74 71.94 C185.27 68.37, 190.89 64.92, 196.61 61.59 C202.32 58.27, 208.12 55.06, 214 51.98 C219.88 48.91, 225.85 45.95, 231.88 43.13 C237.91 40.31, 244.03 37.62, 250.2 35.06 C256.38 32.51, 262.63 30.08, 268.93 27.79 C275.23 25.51, 281.6 23.35, 288.01 21.34 C294.43 19.33, 300.91 17.45, 307.42 15.72 C313.93 13.98, 320.5 12.39, 327.1 10.94 C333.69 9.49, 340.33 8.18, 347 7.01 C353.67 5.85, 360.37 4.83, 367.09 3.95 C373.81 3.07, 380.56 2.34, 387.32 1.76 C394.07 1.17, 400.85 0.73, 407.63 0.44 C414.42 0.15, 421.21 0, 428 0 C434.79 0, 441.58 0.15, 448.37 0.44 C455.15 0.73, 461.93 1.17, 468.68 1.76 C475.44 2.34, 482.19 3.07, 488.91 3.95 C495.63 4.83, 502.33 5.85, 509 7.01 C515.67 8.18, 522.31 9.49, 528.9 10.94 C535.5 12.39, 542.07 13.98, 548.58 15.72 C555.09 17.45, 561.57 19.33, 567.99 21.34 C574.4 23.35, 580.77 25.51, 587.07 27.79 C593.37 30.08, 599.62 32.51, 605.8 35.06 C611.97 37.62, 618.09 40.31, 624.12 43.13 C630.15 45.95, 636.12 48.91, 642 51.98 C647.88 55.06, 653.68 58.27, 659.39 61.59 C665.1 64.92, 670.73 68.37, 676.26 71.94 C681.79 75.51, 687.24 79.21, 692.57 83.01 C697.91 86.82, 703.15 90.74, 708.28 94.77 C713.41 98.8, 718.44 102.94, 723.35 107.19 C728.27 111.44, 733.07 115.8, 737.76 120.25 C742.44 124.7, 747.02 129.26, 751.46 133.91 C755.91 138.56, 760.23 143.32, 764.43 148.15 C768.63 152.99, 772.7 157.93, 776.64 162.94 C780.58 167.95, 784.39 173.05, 788.06 178.23 C791.73 183.41, 795.26 188.67, 798.66 194 C802.05 199.33, 805.31 204.74, 808.42 210.21 C811.53 215.68, 814.5 221.22, 817.32 226.82 C820.14 232.42, 822.82 238.08, 825.34 243.79 C827.86 249.51, 830.24 255.28, 832.46 261.1 C834.68 266.91, 836.75 272.78, 838.66 278.69 C840.58 284.59, 842.33 290.55, 843.94 296.53 C845.54 302.51, 846.98 308.53, 848.27 314.57 C849.55 320.61, 850.68 326.69, 851.64 332.78 C852.61 338.87, 853.42 344.99, 854.06 351.12 C854.71 357.24, 855.19 363.39, 855.52 369.54 C855.84 375.69, 856 381.85, 856 388" stroke="transparent" stroke-width="1" fill="none"></path></g></svg>