<svg version="1.1" xmlns="http://www.w3.org/2000/svg" viewBox="0 0 3239.999847412106 2944.000167846678" width="3239.999847412106" height="2944.000167846678">
  <!-- svg-source:excalidraw -->
  
  <defs>
    <style class="style-fonts">
      @font-face {
        font-family: "Virgil";
        src: url("https://excalidraw.com/Virgil.woff2");
      }
      @font-face {
        font-family: "Cascadia";
        src: url("https://excalidraw.com/Cascadia.woff2");
      }
    </style>
    
  </defs>
  <g stroke-linecap="round" transform="translate(10 10) rotate(0 1609.999923706053 1462.000083923339)"><path d="M0 0 L3220 0 L3220 2924 L0 2924" stroke="none" stroke-width="0" fill="#0d3531"></path><path d="M0 0 C899.26 0, 1798.51 0, 3220 0 M0 0 C815.4 0, 1630.81 0, 3220 0 M3220 0 C3220 727.7, 3220 1455.4, 3220 2924 M3220 0 C3220 976.94, 3220 1953.87, 3220 2924 M3220 2924 C2428.69 2924, 1637.38 2924, 0 2924 M3220 2924 C2029.73 2924, 839.46 2924, 0 2924 M0 2924 C0 1852.86, 0 781.71, 0 0 M0 2924 C0 1901.05, 0 878.09, 0 0" stroke="transparent" stroke-width="4" fill="none"></path></g><g stroke-linecap="round" transform="translate(722.0005798339866 306.0001373291025) rotate(0 1090.0004577636712 1090.0002288818355)"><path d="M2180 1090 C2180 1100.77, 2179.84 1111.54, 2179.52 1122.3 C2179.2 1133.06, 2178.72 1143.82, 2178.09 1154.57 C2177.45 1165.32, 2176.65 1176.06, 2175.7 1186.79 C2174.74 1197.51, 2173.62 1208.23, 2172.35 1218.92 C2171.08 1229.61, 2169.64 1240.29, 2168.05 1250.94 C2166.47 1261.58, 2164.72 1272.21, 2162.81 1282.81 C2160.91 1293.41, 2158.85 1303.98, 2156.63 1314.52 C2154.41 1325.05, 2152.03 1335.56, 2149.51 1346.03 C2146.98 1356.49, 2144.29 1366.92, 2141.45 1377.31 C2138.62 1387.7, 2135.62 1398.04, 2132.48 1408.34 C2129.33 1418.64, 2126.03 1428.89, 2122.59 1439.09 C2119.14 1449.29, 2115.54 1459.45, 2111.79 1469.54 C2108.04 1479.63, 2104.14 1489.67, 2100.09 1499.65 C2096.05 1509.63, 2091.85 1519.55, 2087.51 1529.4 C2083.17 1539.26, 2078.68 1549.05, 2074.05 1558.77 C2069.42 1568.49, 2064.64 1578.15, 2059.73 1587.73 C2054.81 1597.3, 2049.75 1606.81, 2044.55 1616.24 C2039.35 1625.67, 2034.01 1635.03, 2028.54 1644.3 C2023.06 1653.57, 2017.45 1662.76, 2011.7 1671.87 C2005.95 1680.97, 2000.07 1690, 1994.05 1698.93 C1988.04 1707.86, 1981.89 1716.7, 1975.61 1725.45 C1969.33 1734.2, 1962.93 1742.85, 1956.39 1751.41 C1949.86 1759.97, 1943.2 1768.44, 1936.41 1776.8 C1929.63 1785.16, 1922.72 1793.42, 1915.69 1801.58 C1908.66 1809.73, 1901.51 1817.79, 1894.24 1825.73 C1886.97 1833.68, 1879.58 1841.52, 1872.08 1849.24 C1864.58 1856.97, 1856.97 1864.58, 1849.24 1872.08 C1841.52 1879.58, 1833.68 1886.97, 1825.73 1894.24 C1817.79 1901.51, 1809.73 1908.66, 1801.58 1915.69 C1793.42 1922.72, 1785.16 1929.63, 1776.8 1936.41 C1768.44 1943.2, 1759.97 1949.86, 1751.41 1956.39 C1742.85 1962.93, 1734.2 1969.33, 1725.45 1975.61 C1716.7 1981.89, 1707.86 1988.04, 1698.93 1994.05 C1690 2000.07, 1680.97 2005.95, 1671.87 2011.7 C1662.76 2017.45, 1653.57 2023.06, 1644.3 2028.54 C1635.03 2034.01, 1625.67 2039.35, 1616.24 2044.55 C1606.82 2049.75, 1597.31 2054.81, 1587.73 2059.73 C1578.15 2064.64, 1568.49 2069.42, 1558.77 2074.05 C1549.05 2078.68, 1539.26 2083.17, 1529.41 2087.51 C1519.55 2091.85, 1509.63 2096.05, 1499.65 2100.09 C1489.68 2104.14, 1479.63 2108.04, 1469.54 2111.79 C1459.45 2115.54, 1449.29 2119.14, 1439.09 2122.59 C1428.9 2126.03, 1418.64 2129.33, 1408.34 2132.48 C1398.05 2135.62, 1387.7 2138.62, 1377.31 2141.45 C1366.92 2144.29, 1356.49 2146.98, 1346.03 2149.51 C1335.56 2152.03, 1325.05 2154.41, 1314.52 2156.63 C1303.98 2158.84, 1293.41 2160.91, 1282.81 2162.81 C1272.21 2164.72, 1261.58 2166.46, 1250.94 2168.05 C1240.29 2169.64, 1229.61 2171.08, 1218.92 2172.35 C1208.23 2173.62, 1197.51 2174.74, 1186.79 2175.69 C1176.06 2176.65, 1165.32 2177.45, 1154.57 2178.09 C1143.82 2178.72, 1133.06 2179.2, 1122.3 2179.52 C1111.54 2179.84, 1100.77 2180, 1090 2180 C1079.23 2180, 1068.46 2179.84, 1057.7 2179.52 C1046.94 2179.2, 1036.18 2178.72, 1025.43 2178.09 C1014.68 2177.45, 1003.94 2176.65, 993.21 2175.69 C982.49 2174.74, 971.77 2173.62, 961.08 2172.35 C950.39 2171.08, 939.71 2169.64, 929.07 2168.05 C918.42 2166.46, 907.79 2164.72, 897.19 2162.81 C886.59 2160.91, 876.02 2158.84, 865.48 2156.63 C854.95 2154.41, 844.44 2152.03, 833.97 2149.51 C823.51 2146.98, 813.08 2144.29, 802.69 2141.45 C792.3 2138.62, 781.96 2135.62, 771.66 2132.48 C761.36 2129.33, 751.11 2126.03, 740.91 2122.59 C730.71 2119.14, 720.55 2115.54, 710.46 2111.79 C700.37 2108.04, 690.33 2104.14, 680.35 2100.09 C670.37 2096.05, 660.45 2091.85, 650.6 2087.51 C640.74 2083.17, 630.95 2078.68, 621.23 2074.05 C611.51 2069.42, 601.85 2064.64, 592.27 2059.73 C582.7 2054.81, 573.19 2049.75, 563.76 2044.55 C554.33 2039.35, 544.97 2034.01, 535.7 2028.54 C526.43 2023.06, 517.24 2017.45, 508.13 2011.7 C499.03 2005.95, 490.01 2000.07, 481.08 1994.05 C472.15 1988.04, 463.3 1981.89, 454.55 1975.61 C445.8 1969.33, 437.15 1962.93, 428.59 1956.39 C420.03 1949.86, 411.57 1943.2, 403.2 1936.41 C394.84 1929.63, 386.58 1922.72, 378.42 1915.69 C370.27 1908.66, 362.21 1901.51, 354.27 1894.24 C346.32 1886.97, 338.48 1879.58, 330.76 1872.08 C323.03 1864.58, 315.42 1856.97, 307.92 1849.24 C300.42 1841.52, 293.03 1833.68, 285.76 1825.73 C278.49 1817.79, 271.34 1809.73, 264.31 1801.58 C257.28 1793.42, 250.37 1785.16, 243.59 1776.8 C236.81 1768.44, 230.14 1759.97, 223.61 1751.41 C217.08 1742.85, 210.67 1734.2, 204.39 1725.45 C198.11 1716.7, 191.96 1707.86, 185.95 1698.93 C179.93 1690, 174.05 1680.97, 168.3 1671.87 C162.55 1662.76, 156.94 1653.57, 151.46 1644.3 C145.99 1635.03, 140.65 1625.67, 135.45 1616.24 C130.25 1606.81, 125.19 1597.3, 120.27 1587.73 C115.36 1578.15, 110.58 1568.49, 105.95 1558.77 C101.32 1549.05, 96.83 1539.26, 92.49 1529.4 C88.15 1519.55, 83.95 1509.63, 79.91 1499.65 C75.86 1489.67, 71.96 1479.63, 68.21 1469.54 C64.46 1459.45, 60.86 1449.29, 57.41 1439.09 C53.97 1428.89, 50.67 1418.64, 47.52 1408.34 C44.38 1398.04, 41.39 1387.7, 38.55 1377.31 C35.71 1366.92, 33.02 1356.49, 30.5 1346.03 C27.97 1335.56, 25.59 1325.05, 23.37 1314.52 C21.16 1303.98, 19.09 1293.41, 17.19 1282.81 C15.28 1272.21, 13.54 1261.58, 11.95 1250.94 C10.36 1240.29, 8.92 1229.61, 7.65 1218.92 C6.38 1208.23, 5.26 1197.51, 4.31 1186.79 C3.35 1176.06, 2.55 1165.32, 1.91 1154.57 C1.28 1143.82, 0.8 1133.06, 0.48 1122.3 C0.16 1111.54, 0 1100.77, 0 1090 C0 1079.23, 0.16 1068.46, 0.48 1057.7 C0.8 1046.94, 1.28 1036.18, 1.91 1025.43 C2.55 1014.68, 3.35 1003.94, 4.31 993.21 C5.26 982.49, 6.38 971.77, 7.65 961.08 C8.92 950.39, 10.36 939.71, 11.95 929.07 C13.54 918.42, 15.28 907.79, 17.19 897.19 C19.09 886.59, 21.16 876.02, 23.37 865.48 C25.59 854.95, 27.97 844.44, 30.5 833.97 C33.02 823.51, 35.71 813.08, 38.55 802.69 C41.39 792.3, 44.38 781.96, 47.52 771.66 C50.67 761.36, 53.97 751.11, 57.41 740.91 C60.86 730.71, 64.46 720.55, 68.21 710.46 C71.96 700.37, 75.86 690.33, 79.91 680.35 C83.95 670.37, 88.15 660.45, 92.49 650.6 C96.83 640.74, 101.32 630.95, 105.95 621.23 C110.58 611.51, 115.36 601.85, 120.27 592.27 C125.19 582.7, 130.25 573.19, 135.45 563.76 C140.65 554.33, 145.99 544.97, 151.46 535.7 C156.94 526.43, 162.55 517.24, 168.3 508.13 C174.05 499.03, 179.93 490.01, 185.95 481.08 C191.96 472.15, 198.11 463.3, 204.39 454.55 C210.67 445.8, 217.08 437.15, 223.61 428.59 C230.14 420.03, 236.81 411.56, 243.59 403.2 C250.37 394.84, 257.28 386.58, 264.31 378.42 C271.34 370.27, 278.49 362.21, 285.76 354.27 C293.03 346.32, 300.42 338.48, 307.92 330.76 C315.42 323.03, 323.03 315.42, 330.76 307.92 C338.48 300.42, 346.32 293.03, 354.27 285.76 C362.21 278.49, 370.27 271.34, 378.42 264.31 C386.58 257.28, 394.84 250.37, 403.2 243.59 C411.57 236.81, 420.03 230.14, 428.59 223.61 C437.15 217.08, 445.8 210.67, 454.55 204.39 C463.3 198.11, 472.15 191.96, 481.08 185.95 C490.01 179.93, 499.03 174.05, 508.13 168.3 C517.24 162.55, 526.43 156.94, 535.7 151.46 C544.97 145.99, 554.33 140.65, 563.76 135.45 C573.19 130.25, 582.7 125.19, 592.27 120.27 C601.85 115.36, 611.51 110.58, 621.23 105.95 C630.95 101.32, 640.74 96.83, 650.6 92.49 C660.45 88.15, 670.37 83.95, 680.35 79.91 C690.33 75.86, 700.37 71.96, 710.46 68.21 C720.55 64.46, 730.71 60.86, 740.91 57.41 C751.11 53.97, 761.36 50.67, 771.66 47.52 C781.96 44.38, 792.3 41.39, 802.69 38.55 C813.08 35.71, 823.51 33.02, 833.97 30.5 C844.44 27.97, 854.95 25.59, 865.48 23.37 C876.02 21.16, 886.59 19.09, 897.19 17.19 C907.79 15.28, 918.42 13.54, 929.07 11.95 C939.71 10.36, 950.39 8.92, 961.08 7.65 C971.77 6.38, 982.49 5.26, 993.21 4.31 C1003.94 3.35, 1014.68 2.55, 1025.43 1.91 C1036.18 1.28, 1046.94 0.8, 1057.7 0.48 C1068.46 0.16, 1079.23 0, 1090 0 C1100.77 0, 1111.54 0.16, 1122.3 0.48 C1133.06 0.8, 1143.82 1.28, 1154.57 1.91 C1165.32 2.55, 1176.06 3.35, 1186.79 4.31 C1197.51 5.26, 1208.23 6.38, 1218.92 7.65 C1229.61 8.92, 1240.29 10.36, 1250.94 11.95 C1261.58 13.54, 1272.21 15.28, 1282.81 17.19 C1293.41 19.09, 1303.98 21.16, 1314.52 23.37 C1325.05 25.59, 1335.56 27.97, 1346.03 30.5 C1356.49 33.02, 1366.92 35.71, 1377.31 38.55 C1387.7 41.39, 1398.05 44.38, 1408.34 47.52 C1418.64 50.67, 1428.9 53.97, 1439.09 57.41 C1449.29 60.86, 1459.45 64.46, 1469.54 68.21 C1479.63 71.96, 1489.68 75.86, 1499.65 79.91 C1509.63 83.95, 1519.55 88.15, 1529.41 92.49 C1539.26 96.83, 1549.05 101.32, 1558.77 105.95 C1568.49 110.58, 1578.15 115.36, 1587.73 120.27 C1597.31 125.19, 1606.82 130.25, 1616.24 135.45 C1625.67 140.65, 1635.03 145.99, 1644.3 151.46 C1653.57 156.94, 1662.76 162.55, 1671.87 168.3 C1680.97 174.05, 1690 179.93, 1698.93 185.95 C1707.86 191.96, 1716.7 198.11, 1725.45 204.39 C1734.2 210.67, 1742.85 217.08, 1751.41 223.61 C1759.97 230.14, 1768.44 236.81, 1776.8 243.59 C1785.16 250.37, 1793.42 257.28, 1801.58 264.31 C1809.73 271.34, 1817.79 278.49, 1825.73 285.76 C1833.68 293.03, 1841.52 300.42, 1849.24 307.92 C1856.97 315.42, 1864.58 323.03, 1872.08 330.76 C1879.58 338.48, 1886.97 346.32, 1894.24 354.27 C1901.51 362.21, 1908.66 370.27, 1915.69 378.42 C1922.72 386.58, 1929.63 394.84, 1936.41 403.2 C1943.2 411.56, 1949.86 420.03, 1956.39 428.59 C1962.93 437.15, 1969.33 445.8, 1975.61 454.55 C1981.89 463.3, 1988.04 472.15, 1994.05 481.08 C2000.07 490.01, 2005.95 499.03, 2011.7 508.13 C2017.45 517.24, 2023.06 526.43, 2028.54 535.7 C2034.01 544.97, 2039.35 554.33, 2044.55 563.76 C2049.75 573.19, 2054.81 582.7, 2059.73 592.27 C2064.64 601.85, 2069.42 611.51, 2074.05 621.23 C2078.68 630.95, 2083.17 640.74, 2087.51 650.6 C2091.85 660.45, 2096.05 670.37, 2100.09 680.35 C2104.14 690.33, 2108.04 700.37, 2111.79 710.46 C2115.54 720.55, 2119.14 730.71, 2122.59 740.91 C2126.03 751.11, 2129.33 761.36, 2132.48 771.66 C2135.62 781.96, 2138.62 792.3, 2141.45 802.69 C2144.29 813.08, 2146.98 823.51, 2149.51 833.97 C2152.03 844.44, 2154.41 854.95, 2156.63 865.48 C2158.85 876.02, 2160.91 886.59, 2162.81 897.19 C2164.72 907.79, 2166.47 918.42, 2168.05 929.07 C2169.64 939.71, 2171.08 950.39, 2172.35 961.08 C2173.62 971.77, 2174.74 982.49, 2175.7 993.21 C2176.65 1003.94, 2177.45 1014.68, 2178.09 1025.43 C2178.72 1036.18, 2179.2 1046.94, 2179.52 1057.7 C2179.84 1068.46, 2179.92 1084.62, 2180 1090 C2180.08 1095.38, 2180.08 1084.62, 2180 1090" stroke="none" stroke-width="0" fill="#347357"></path><path d="M2180 1090 C2180 1100.77, 2179.84 1111.54, 2179.52 1122.3 C2179.2 1133.06, 2178.72 1143.82, 2178.09 1154.57 C2177.45 1165.32, 2176.65 1176.06, 2175.7 1186.79 C2174.74 1197.51, 2173.62 1208.23, 2172.35 1218.92 C2171.08 1229.61, 2169.64 1240.29, 2168.05 1250.94 C2166.47 1261.58, 2164.72 1272.21, 2162.81 1282.81 C2160.91 1293.41, 2158.85 1303.98, 2156.63 1314.52 C2154.41 1325.05, 2152.03 1335.56, 2149.51 1346.03 C2146.98 1356.49, 2144.29 1366.92, 2141.45 1377.31 C2138.62 1387.7, 2135.62 1398.04, 2132.48 1408.34 C2129.33 1418.64, 2126.03 1428.89, 2122.59 1439.09 C2119.14 1449.29, 2115.54 1459.45, 2111.79 1469.54 C2108.04 1479.63, 2104.14 1489.67, 2100.09 1499.65 C2096.05 1509.63, 2091.85 1519.55, 2087.51 1529.4 C2083.17 1539.26, 2078.68 1549.05, 2074.05 1558.77 C2069.42 1568.49, 2064.64 1578.15, 2059.73 1587.73 C2054.81 1597.3, 2049.75 1606.81, 2044.55 1616.24 C2039.35 1625.67, 2034.01 1635.03, 2028.54 1644.3 C2023.06 1653.57, 2017.45 1662.76, 2011.7 1671.87 C2005.95 1680.97, 2000.07 1690, 1994.05 1698.93 C1988.04 1707.86, 1981.89 1716.7, 1975.61 1725.45 C1969.33 1734.2, 1962.93 1742.85, 1956.39 1751.41 C1949.86 1759.97, 1943.2 1768.44, 1936.41 1776.8 C1929.63 1785.16, 1922.72 1793.42, 1915.69 1801.58 C1908.66 1809.73, 1901.51 1817.79, 1894.24 1825.73 C1886.97 1833.68, 1879.58 1841.52, 1872.08 1849.24 C1864.58 1856.97, 1856.97 1864.58, 1849.24 1872.08 C1841.52 1879.58, 1833.68 1886.97, 1825.73 1894.24 C1817.79 1901.51, 1809.73 1908.66, 1801.58 1915.69 C1793.42 1922.72, 1785.16 1929.63, 1776.8 1936.41 C1768.44 1943.2, 1759.97 1949.86, 1751.41 1956.39 C1742.85 1962.93, 1734.2 1969.33, 1725.45 1975.61 C1716.7 1981.89, 1707.86 1988.04, 1698.93 1994.05 C1690 2000.07, 1680.97 2005.95, 1671.87 2011.7 C1662.76 2017.45, 1653.57 2023.06, 1644.3 2028.54 C1635.03 2034.01, 1625.67 2039.35, 1616.24 2044.55 C1606.82 2049.75, 1597.31 2054.81, 1587.73 2059.73 C1578.15 2064.64, 1568.49 2069.42, 1558.77 2074.05 C1549.05 2078.68, 1539.26 2083.17, 1529.41 2087.51 C1519.55 2091.85, 1509.63 2096.05, 1499.65 2100.09 C1489.68 2104.14, 1479.63 2108.04, 1469.54 2111.79 C1459.45 2115.54, 1449.29 2119.14, 1439.09 2122.59 C1428.9 2126.03, 1418.64 2129.33, 1408.34 2132.48 C1398.05 2135.62, 1387.7 2138.62, 1377.31 2141.45 C1366.92 2144.29, 1356.49 2146.98, 1346.03 2149.51 C1335.56 2152.03, 1325.05 2154.41, 1314.52 2156.63 C1303.98 2158.84, 1293.41 2160.91, 1282.81 2162.81 C1272.21 2164.72, 1261.58 2166.46, 1250.94 2168.05 C1240.29 2169.64, 1229.61 2171.08, 1218.92 2172.35 C1208.23 2173.62, 1197.51 2174.74, 1186.79 2175.69 C1176.06 2176.65, 1165.32 2177.45, 1154.57 2178.09 C1143.82 2178.72, 1133.06 2179.2, 1122.3 2179.52 C1111.54 2179.84, 1100.77 2180, 1090 2180 C1079.23 2180, 1068.46 2179.84, 1057.7 2179.52 C1046.94 2179.2, 1036.18 2178.72, 1025.43 2178.09 C1014.68 2177.45, 1003.94 2176.65, 993.21 2175.69 C982.49 2174.74, 971.77 2173.62, 961.08 2172.35 C950.39 2171.08, 939.71 2169.64, 929.07 2168.05 C918.42 2166.46, 907.79 2164.72, 897.19 2162.81 C886.59 2160.91, 876.02 2158.84, 865.48 2156.63 C854.95 2154.41, 844.44 2152.03, 833.97 2149.51 C823.51 2146.98, 813.08 2144.29, 802.69 2141.45 C792.3 2138.62, 781.96 2135.62, 771.66 2132.48 C761.36 2129.33, 751.11 2126.03, 740.91 2122.59 C730.71 2119.14, 720.55 2115.54, 710.46 2111.79 C700.37 2108.04, 690.33 2104.14, 680.35 2100.09 C670.37 2096.05, 660.45 2091.85, 650.6 2087.51 C640.74 2083.17, 630.95 2078.68, 621.23 2074.05 C611.51 2069.42, 601.85 2064.64, 592.27 2059.73 C582.7 2054.81, 573.19 2049.75, 563.76 2044.55 C554.33 2039.35, 544.97 2034.01, 535.7 2028.54 C526.43 2023.06, 517.24 2017.45, 508.13 2011.7 C499.03 2005.95, 490.01 2000.07, 481.08 1994.05 C472.15 1988.04, 463.3 1981.89, 454.55 1975.61 C445.8 1969.33, 437.15 1962.93, 428.59 1956.39 C420.03 1949.86, 411.57 1943.2, 403.2 1936.41 C394.84 1929.63, 386.58 1922.72, 378.42 1915.69 C370.27 1908.66, 362.21 1901.51, 354.27 1894.24 C346.32 1886.97, 338.48 1879.58, 330.76 1872.08 C323.03 1864.58, 315.42 1856.97, 307.92 1849.24 C300.42 1841.52, 293.03 1833.68, 285.76 1825.73 C278.49 1817.79, 271.34 1809.73, 264.31 1801.58 C257.28 1793.42, 250.37 1785.16, 243.59 1776.8 C236.81 1768.44, 230.14 1759.97, 223.61 1751.41 C217.08 1742.85, 210.67 1734.2, 204.39 1725.45 C198.11 1716.7, 191.96 1707.86, 185.95 1698.93 C179.93 1690, 174.05 1680.97, 168.3 1671.87 C162.55 1662.76, 156.94 1653.57, 151.46 1644.3 C145.99 1635.03, 140.65 1625.67, 135.45 1616.24 C130.25 1606.81, 125.19 1597.3, 120.27 1587.73 C115.36 1578.15, 110.58 1568.49, 105.95 1558.77 C101.32 1549.05, 96.83 1539.26, 92.49 1529.4 C88.15 1519.55, 83.95 1509.63, 79.91 1499.65 C75.86 1489.67, 71.96 1479.63, 68.21 1469.54 C64.46 1459.45, 60.86 1449.29, 57.41 1439.09 C53.97 1428.89, 50.67 1418.64, 47.52 1408.34 C44.38 1398.04, 41.39 1387.7, 38.55 1377.31 C35.71 1366.92, 33.02 1356.49, 30.5 1346.03 C27.97 1335.56, 25.59 1325.05, 23.37 1314.52 C21.16 1303.98, 19.09 1293.41, 17.19 1282.81 C15.28 1272.21, 13.54 1261.58, 11.95 1250.94 C10.36 1240.29, 8.92 1229.61, 7.65 1218.92 C6.38 1208.23, 5.26 1197.51, 4.31 1186.79 C3.35 1176.06, 2.55 1165.32, 1.91 1154.57 C1.28 1143.82, 0.8 1133.06, 0.48 1122.3 C0.16 1111.54, 0 1100.77, 0 1090 C0 1079.23, 0.16 1068.46, 0.48 1057.7 C0.8 1046.94, 1.28 1036.18, 1.91 1025.43 C2.55 1014.68, 3.35 1003.94, 4.31 993.21 C5.26 982.49, 6.38 971.77, 7.65 961.08 C8.92 950.39, 10.36 939.71, 11.95 929.07 C13.54 918.42, 15.28 907.79, 17.19 897.19 C19.09 886.59, 21.16 876.02, 23.37 865.48 C25.59 854.95, 27.97 844.44, 30.5 833.97 C33.02 823.51, 35.71 813.08, 38.55 802.69 C41.39 792.3, 44.38 781.96, 47.52 771.66 C50.67 761.36, 53.97 751.11, 57.41 740.91 C60.86 730.71, 64.46 720.55, 68.21 710.46 C71.96 700.37, 75.86 690.33, 79.91 680.35 C83.95 670.37, 88.15 660.45, 92.49 650.6 C96.83 640.74, 101.32 630.95, 105.95 621.23 C110.58 611.51, 115.36 601.85, 120.27 592.27 C125.19 582.7, 130.25 573.19, 135.45 563.76 C140.65 554.33, 145.99 544.97, 151.46 535.7 C156.94 526.43, 162.55 517.24, 168.3 508.13 C174.05 499.03, 179.93 490.01, 185.95 481.08 C191.96 472.15, 198.11 463.3, 204.39 454.55 C210.67 445.8, 217.08 437.15, 223.61 428.59 C230.14 420.03, 236.81 411.56, 243.59 403.2 C250.37 394.84, 257.28 386.58, 264.31 378.42 C271.34 370.27, 278.49 362.21, 285.76 354.27 C293.03 346.32, 300.42 338.48, 307.92 330.76 C315.42 323.03, 323.03 315.42, 330.76 307.92 C338.48 300.42, 346.32 293.03, 354.27 285.76 C362.21 278.49, 370.27 271.34, 378.42 264.31 C386.58 257.28, 394.84 250.37, 403.2 243.59 C411.57 236.81, 420.03 230.14, 428.59 223.61 C437.15 217.08, 445.8 210.67, 454.55 204.39 C463.3 198.11, 472.15 191.96, 481.08 185.95 C490.01 179.93, 499.03 174.05, 508.13 168.3 C517.24 162.55, 526.43 156.94, 535.7 151.46 C544.97 145.99, 554.33 140.65, 563.76 135.45 C573.19 130.25, 582.7 125.19, 592.27 120.27 C601.85 115.36, 611.51 110.58, 621.23 105.95 C630.95 101.32, 640.74 96.83, 650.6 92.49 C660.45 88.15, 670.37 83.95, 680.35 79.91 C690.33 75.86, 700.37 71.96, 710.46 68.21 C720.55 64.46, 730.71 60.86, 740.91 57.41 C751.11 53.97, 761.36 50.67, 771.66 47.52 C781.96 44.38, 792.3 41.39, 802.69 38.55 C813.08 35.71, 823.51 33.02, 833.97 30.5 C844.44 27.97, 854.95 25.59, 865.48 23.37 C876.02 21.16, 886.59 19.09, 897.19 17.19 C907.79 15.28, 918.42 13.54, 929.07 11.95 C939.71 10.36, 950.39 8.92, 961.08 7.65 C971.77 6.38, 982.49 5.26, 993.21 4.31 C1003.94 3.35, 1014.68 2.55, 1025.43 1.91 C1036.18 1.28, 1046.94 0.8, 1057.7 0.48 C1068.46 0.16, 1079.23 0, 1090 0 C1100.77 0, 1111.54 0.16, 1122.3 0.48 C1133.06 0.8, 1143.82 1.28, 1154.57 1.91 C1165.32 2.55, 1176.06 3.35, 1186.79 4.31 C1197.51 5.26, 1208.23 6.38, 1218.92 7.65 C1229.61 8.92, 1240.29 10.36, 1250.94 11.95 C1261.58 13.54, 1272.21 15.28, 1282.81 17.19 C1293.41 19.09, 1303.98 21.16, 1314.52 23.37 C1325.05 25.59, 1335.56 27.97, 1346.03 30.5 C1356.49 33.02, 1366.92 35.71, 1377.31 38.55 C1387.7 41.39, 1398.05 44.38, 1408.34 47.52 C1418.64 50.67, 1428.9 53.97, 1439.09 57.41 C1449.29 60.86, 1459.45 64.46, 1469.54 68.21 C1479.63 71.96, 1489.68 75.86, 1499.65 79.91 C1509.63 83.95, 1519.55 88.15, 1529.41 92.49 C1539.26 96.83, 1549.05 101.32, 1558.77 105.95 C1568.49 110.58, 1578.15 115.36, 1587.73 120.27 C1597.31 125.19, 1606.82 130.25, 1616.24 135.45 C1625.67 140.65, 1635.03 145.99, 1644.3 151.46 C1653.57 156.94, 1662.76 162.55, 1671.87 168.3 C1680.97 174.05, 1690 179.93, 1698.93 185.95 C1707.86 191.96, 1716.7 198.11, 1725.45 204.39 C1734.2 210.67, 1742.85 217.08, 1751.41 223.61 C1759.97 230.14, 1768.44 236.81, 1776.8 243.59 C1785.16 250.37, 1793.42 257.28, 1801.58 264.31 C1809.73 271.34, 1817.79 278.49, 1825.73 285.76 C1833.68 293.03, 1841.52 300.42, 1849.24 307.92 C1856.97 315.42, 1864.58 323.03, 1872.08 330.76 C1879.58 338.48, 1886.97 346.32, 1894.24 354.27 C1901.51 362.21, 1908.66 370.27, 1915.69 378.42 C1922.72 386.58, 1929.63 394.84, 1936.41 403.2 C1943.2 411.56, 1949.86 420.03, 1956.39 428.59 C1962.93 437.15, 1969.33 445.8, 1975.61 454.55 C1981.89 463.3, 1988.04 472.15, 1994.05 481.08 C2000.07 490.01, 2005.95 499.03, 2011.7 508.13 C2017.45 517.24, 2023.06 526.43, 2028.54 535.7 C2034.01 544.97, 2039.35 554.33, 2044.55 563.76 C2049.75 573.19, 2054.81 582.7, 2059.73 592.27 C2064.64 601.85, 2069.42 611.51, 2074.05 621.23 C2078.68 630.95, 2083.17 640.74, 2087.51 650.6 C2091.85 660.45, 2096.05 670.37, 2100.09 680.35 C2104.14 690.33, 2108.04 700.37, 2111.79 710.46 C2115.54 720.55, 2119.14 730.71, 2122.59 740.91 C2126.03 751.11, 2129.33 761.36, 2132.48 771.66 C2135.62 781.96, 2138.62 792.3, 2141.45 802.69 C2144.29 813.08, 2146.98 823.51, 2149.51 833.97 C2152.03 844.44, 2154.41 854.95, 2156.63 865.48 C2158.85 876.02, 2160.91 886.59, 2162.81 897.19 C2164.72 907.79, 2166.47 918.42, 2168.05 929.07 C2169.64 939.71, 2171.08 950.39, 2172.35 961.08 C2173.62 971.77, 2174.74 982.49, 2175.7 993.21 C2176.65 1003.94, 2177.45 1014.68, 2178.09 1025.43 C2178.72 1036.18, 2179.2 1046.94, 2179.52 1057.7 C2179.84 1068.46, 2179.92 1084.62, 2180 1090 C2180.08 1095.38, 2180.08 1084.62, 2180 1090" stroke="transparent" stroke-width="4" fill="none"></path></g></svg>