<svg version="1.1" xmlns="http://www.w3.org/2000/svg" viewBox="0 0 2626.4000549316397 1384.7999420166007" width="2626.4000549316397" height="1384.7999420166007">
  <!-- svg-source:excalidraw -->
  
  <defs>
    <style class="style-fonts">
      @font-face {
        font-family: "Virgil";
        src: url("https://excalidraw.com/Virgil.woff2");
      }
      @font-face {
        font-family: "Cascadia";
        src: url("https://excalidraw.com/Cascadia.woff2");
      }
    </style>
    
  </defs>
  <g stroke-linecap="round" transform="translate(10 10) rotate(0 1303.2000274658199 682.3999710083003)"><path d="M32 0 L2574.4 0 L2581.9 0.5 L2588.4 2 L2593.9 4.5 L2598.4 8 L2601.9 12.5 L2604.4 18 L2605.9 24.5 L2606.4 32 L2606.4 1332.8 L2605.9 1340.3 L2604.4 1346.8 L2601.9 1352.3 L2598.4 1356.8 L2593.9 1360.3 L2588.4 1362.8 L2581.9 1364.3 L2574.4 1364.8 L32 1364.8 L24.5 1364.3 L18 1362.8 L12.5 1360.3 L8 1356.8 L4.5 1352.3 L2 1346.8 L0.5 1340.3 L0 1332.8 L0 32 L0.5 24.5 L2 18 L4.5 12.5 L8 8 L12.5 4.5 L18 2 L24.5 0.5 L32 0" stroke="none" stroke-width="0" fill="#e5f2e8"></path><path d="M32 0 M32 0 C930.57 0, 1829.14 0, 2574.4 0 M32 0 C674.78 0, 1317.56 0, 2574.4 0 M2574.4 0 C2595.73 0, 2606.4 10.67, 2606.4 32 M2574.4 0 C2595.73 0, 2606.4 10.67, 2606.4 32 M2606.4 32 C2606.4 363.36, 2606.4 694.72, 2606.4 1332.8 M2606.4 32 C2606.4 485.49, 2606.4 938.99, 2606.4 1332.8 M2606.4 1332.8 C2606.4 1354.13, 2595.73 1364.8, 2574.4 1364.8 M2606.4 1332.8 C2606.4 1354.13, 2595.73 1364.8, 2574.4 1364.8 M2574.4 1364.8 C1630.25 1364.8, 686.09 1364.8, 32 1364.8 M2574.4 1364.8 C1854.66 1364.8, 1134.92 1364.8, 32 1364.8 M32 1364.8 C10.67 1364.8, 0 1354.13, 0 1332.8 M32 1364.8 C10.67 1364.8, 0 1354.13, 0 1332.8 M0 1332.8 C0 1061.27, 0 789.74, 0 32 M0 1332.8 C0 934.53, 0 536.27, 0 32 M0 32 C0 10.67, 10.67 0, 32 0 M0 32 C0 10.67, 10.67 0, 32 0" stroke="transparent" stroke-width="1" fill="none"></path></g><g stroke-linecap="round" transform="translate(1523.5998840332022 13.199966430664062) rotate(0 465.5999755859375 436.80003356933594)"><path d="M931.2 436.8 C931.2 443.52, 931.03 450.26, 930.7 456.97 C930.37 463.69, 929.88 470.41, 929.21 477.1 C928.55 483.8, 927.73 490.49, 926.74 497.15 C925.74 503.81, 924.59 510.45, 923.27 517.06 C921.96 523.67, 920.47 530.26, 918.83 536.81 C917.19 543.35, 915.39 549.87, 913.43 556.34 C911.46 562.8, 909.34 569.24, 907.06 575.61 C904.79 581.99, 902.35 588.32, 899.76 594.59 C897.17 600.86, 894.42 607.08, 891.53 613.23 C888.63 619.38, 885.58 625.48, 882.39 631.5 C879.19 637.52, 875.85 643.47, 872.36 649.35 C868.87 655.22, 865.23 661.03, 861.46 666.75 C857.69 672.46, 853.77 678.1, 849.72 683.65 C845.67 689.2, 841.48 694.66, 837.16 700.03 C832.84 705.4, 828.38 710.68, 823.8 715.85 C819.22 721.02, 814.51 726.1, 809.68 731.07 C804.85 736.04, 799.9 740.91, 794.83 745.66 C789.76 750.42, 784.57 755.07, 779.27 759.6 C773.98 764.13, 768.56 768.55, 763.05 772.85 C757.53 777.14, 751.91 781.32, 746.19 785.37 C740.47 789.43, 734.64 793.36, 728.73 797.16 C722.81 800.96, 716.8 804.64, 710.71 808.17 C704.61 811.71, 698.42 815.13, 692.16 818.4 C685.9 821.67, 679.55 824.81, 673.14 827.81 C666.72 830.8, 660.22 833.67, 653.67 836.38 C647.11 839.1, 640.48 841.67, 633.79 844.1 C627.11 846.53, 620.36 848.82, 613.56 850.96 C606.77 853.09, 599.91 855.09, 593.02 856.93 C586.12 858.77, 579.18 860.46, 572.2 862 C565.22 863.54, 558.2 864.93, 551.15 866.16 C544.11 867.4, 537.02 868.48, 529.93 869.41 C522.83 870.34, 515.7 871.12, 508.56 871.74 C501.42 872.36, 494.26 872.82, 487.1 873.13 C479.94 873.44, 472.77 873.6, 465.6 873.6 C458.43 873.6, 451.26 873.44, 444.1 873.13 C436.94 872.82, 429.78 872.36, 422.64 871.74 C415.5 871.12, 408.37 870.34, 401.27 869.41 C394.18 868.48, 387.09 867.4, 380.05 866.16 C373 864.93, 365.98 863.54, 359 862 C352.02 860.46, 345.08 858.77, 338.18 856.93 C331.29 855.09, 324.43 853.09, 317.64 850.96 C310.84 848.82, 304.09 846.53, 297.41 844.1 C290.72 841.67, 284.09 839.1, 277.53 836.38 C270.98 833.67, 264.48 830.8, 258.06 827.81 C251.65 824.81, 245.3 821.67, 239.04 818.4 C232.78 815.13, 226.59 811.71, 220.49 808.17 C214.4 804.64, 208.39 800.96, 202.47 797.16 C196.56 793.36, 190.73 789.43, 185.01 785.37 C179.29 781.32, 173.67 777.14, 168.15 772.85 C162.64 768.55, 157.22 764.13, 151.93 759.6 C146.63 755.07, 141.44 750.42, 136.37 745.66 C131.3 740.91, 126.35 736.04, 121.52 731.07 C116.69 726.1, 111.98 721.02, 107.4 715.85 C102.82 710.68, 98.36 705.4, 94.04 700.03 C89.72 694.66, 85.53 689.2, 81.48 683.65 C77.43 678.1, 73.51 672.46, 69.74 666.75 C65.97 661.03, 62.33 655.22, 58.84 649.35 C55.35 643.47, 52.01 637.52, 48.81 631.5 C45.62 625.48, 42.57 619.38, 39.67 613.23 C36.78 607.08, 34.03 600.86, 31.44 594.59 C28.85 588.32, 26.41 581.99, 24.14 575.61 C21.86 569.24, 19.74 562.8, 17.77 556.34 C15.81 549.87, 14.01 543.35, 12.37 536.81 C10.73 530.26, 9.24 523.67, 7.93 517.06 C6.61 510.45, 5.46 503.81, 4.46 497.15 C3.47 490.49, 2.65 483.8, 1.99 477.1 C1.32 470.41, 0.83 463.69, 0.5 456.97 C0.17 450.26, 0 443.52, 0 436.8 C0 430.08, 0.17 423.34, 0.5 416.63 C0.83 409.91, 1.32 403.19, 1.99 396.5 C2.65 389.8, 3.47 383.11, 4.46 376.45 C5.46 369.79, 6.61 363.15, 7.93 356.54 C9.24 349.93, 10.73 343.34, 12.37 336.79 C14.01 330.25, 15.81 323.73, 17.77 317.26 C19.74 310.8, 21.86 304.36, 24.14 297.99 C26.41 291.61, 28.85 285.28, 31.44 279.01 C34.03 272.74, 36.78 266.52, 39.67 260.37 C42.57 254.22, 45.62 248.12, 48.81 242.1 C52.01 236.08, 55.35 230.13, 58.84 224.25 C62.33 218.38, 65.97 212.57, 69.74 206.85 C73.51 201.14, 77.43 195.5, 81.48 189.95 C85.53 184.4, 89.72 178.94, 94.04 173.57 C98.36 168.2, 102.82 162.92, 107.4 157.75 C111.98 152.58, 116.69 147.5, 121.52 142.53 C126.35 137.56, 131.3 132.69, 136.37 127.94 C141.44 123.18, 146.63 118.53, 151.93 114 C157.22 109.47, 162.64 105.05, 168.15 100.75 C173.67 96.46, 179.29 92.28, 185.01 88.23 C190.73 84.17, 196.56 80.24, 202.47 76.44 C208.39 72.64, 214.4 68.97, 220.49 65.43 C226.59 61.89, 232.78 58.47, 239.04 55.2 C245.3 51.93, 251.65 48.79, 258.06 45.79 C264.48 42.8, 270.98 39.93, 277.53 37.22 C284.09 34.5, 290.72 31.93, 297.41 29.5 C304.09 27.07, 310.84 24.78, 317.64 22.64 C324.43 20.51, 331.29 18.51, 338.18 16.67 C345.08 14.83, 352.02 13.14, 359 11.6 C365.98 10.06, 373 8.67, 380.05 7.44 C387.09 6.2, 394.18 5.12, 401.27 4.19 C408.37 3.26, 415.5 2.48, 422.64 1.86 C429.78 1.24, 436.94 0.78, 444.1 0.47 C451.26 0.16, 458.43 0, 465.6 0 C472.77 0, 479.94 0.16, 487.1 0.47 C494.26 0.78, 501.42 1.24, 508.56 1.86 C515.7 2.48, 522.83 3.26, 529.93 4.19 C537.02 5.12, 544.11 6.2, 551.15 7.44 C558.2 8.67, 565.22 10.06, 572.2 11.6 C579.18 13.14, 586.12 14.83, 593.02 16.67 C599.91 18.51, 606.77 20.51, 613.56 22.64 C620.36 24.78, 627.11 27.07, 633.79 29.5 C640.48 31.93, 647.11 34.5, 653.67 37.22 C660.22 39.93, 666.72 42.8, 673.14 45.79 C679.55 48.79, 685.9 51.93, 692.16 55.2 C698.42 58.47, 704.61 61.89, 710.71 65.43 C716.8 68.97, 722.81 72.64, 728.73 76.44 C734.64 80.24, 740.47 84.17, 746.19 88.23 C751.91 92.28, 757.53 96.46, 763.05 100.75 C768.56 105.05, 773.98 109.47, 779.27 114 C784.57 118.53, 789.76 123.18, 794.83 127.94 C799.9 132.69, 804.85 137.56, 809.68 142.53 C814.51 147.5, 819.22 152.58, 823.8 157.75 C828.38 162.92, 832.84 168.2, 837.16 173.57 C841.48 178.94, 845.67 184.4, 849.72 189.95 C853.77 195.5, 857.69 201.14, 861.46 206.85 C865.23 212.57, 868.87 218.38, 872.36 224.25 C875.85 230.13, 879.19 236.08, 882.39 242.1 C885.58 248.12, 888.63 254.22, 891.53 260.37 C894.42 266.52, 897.17 272.74, 899.76 279.01 C902.35 285.28, 904.79 291.61, 907.06 297.99 C909.34 304.36, 911.46 310.8, 913.43 317.26 C915.39 323.73, 917.19 330.25, 918.83 336.79 C920.47 343.34, 921.96 349.93, 923.27 356.54 C924.59 363.15, 925.74 369.79, 926.74 376.45 C927.73 383.11, 928.55 389.8, 929.21 396.5 C929.88 403.19, 930.37 409.91, 930.7 416.63 C931.03 423.34, 931.2 430.08, 931.2 436.8" stroke="none" stroke-width="0" fill="#ecd5ac"></path><path d="M931.2 436.8 C931.2 443.52, 931.03 450.26, 930.7 456.97 C930.37 463.69, 929.88 470.41, 929.21 477.1 C928.55 483.8, 927.73 490.49, 926.74 497.15 C925.74 503.81, 924.59 510.45, 923.27 517.06 C921.96 523.67, 920.47 530.26, 918.83 536.81 C917.19 543.35, 915.39 549.87, 913.43 556.34 C911.46 562.8, 909.34 569.24, 907.06 575.61 C904.79 581.99, 902.35 588.32, 899.76 594.59 C897.17 600.86, 894.42 607.08, 891.53 613.23 C888.63 619.38, 885.58 625.48, 882.39 631.5 C879.19 637.52, 875.85 643.47, 872.36 649.35 C868.87 655.22, 865.23 661.03, 861.46 666.75 C857.69 672.46, 853.77 678.1, 849.72 683.65 C845.67 689.2, 841.48 694.66, 837.16 700.03 C832.84 705.4, 828.38 710.68, 823.8 715.85 C819.22 721.02, 814.51 726.1, 809.68 731.07 C804.85 736.04, 799.9 740.91, 794.83 745.66 C789.76 750.42, 784.57 755.07, 779.27 759.6 C773.98 764.13, 768.56 768.55, 763.05 772.85 C757.53 777.14, 751.91 781.32, 746.19 785.37 C740.47 789.43, 734.64 793.36, 728.73 797.16 C722.81 800.96, 716.8 804.64, 710.71 808.17 C704.61 811.71, 698.42 815.13, 692.16 818.4 C685.9 821.67, 679.55 824.81, 673.14 827.81 C666.72 830.8, 660.22 833.67, 653.67 836.38 C647.11 839.1, 640.48 841.67, 633.79 844.1 C627.11 846.53, 620.36 848.82, 613.56 850.96 C606.77 853.09, 599.91 855.09, 593.02 856.93 C586.12 858.77, 579.18 860.46, 572.2 862 C565.22 863.54, 558.2 864.93, 551.15 866.16 C544.11 867.4, 537.02 868.48, 529.93 869.41 C522.83 870.34, 515.7 871.12, 508.56 871.74 C501.42 872.36, 494.26 872.82, 487.1 873.13 C479.94 873.44, 472.77 873.6, 465.6 873.6 C458.43 873.6, 451.26 873.44, 444.1 873.13 C436.94 872.82, 429.78 872.36, 422.64 871.74 C415.5 871.12, 408.37 870.34, 401.27 869.41 C394.18 868.48, 387.09 867.4, 380.05 866.16 C373 864.93, 365.98 863.54, 359 862 C352.02 860.46, 345.08 858.77, 338.18 856.93 C331.29 855.09, 324.43 853.09, 317.64 850.96 C310.84 848.82, 304.09 846.53, 297.41 844.1 C290.72 841.67, 284.09 839.1, 277.53 836.38 C270.98 833.67, 264.48 830.8, 258.06 827.81 C251.65 824.81, 245.3 821.67, 239.04 818.4 C232.78 815.13, 226.59 811.71, 220.49 808.17 C214.4 804.64, 208.39 800.96, 202.47 797.16 C196.56 793.36, 190.73 789.43, 185.01 785.37 C179.29 781.32, 173.67 777.14, 168.15 772.85 C162.64 768.55, 157.22 764.13, 151.93 759.6 C146.63 755.07, 141.44 750.42, 136.37 745.66 C131.3 740.91, 126.35 736.04, 121.52 731.07 C116.69 726.1, 111.98 721.02, 107.4 715.85 C102.82 710.68, 98.36 705.4, 94.04 700.03 C89.72 694.66, 85.53 689.2, 81.48 683.65 C77.43 678.1, 73.51 672.46, 69.74 666.75 C65.97 661.03, 62.33 655.22, 58.84 649.35 C55.35 643.47, 52.01 637.52, 48.81 631.5 C45.62 625.48, 42.57 619.38, 39.67 613.23 C36.78 607.08, 34.03 600.86, 31.44 594.59 C28.85 588.32, 26.41 581.99, 24.14 575.61 C21.86 569.24, 19.74 562.8, 17.77 556.34 C15.81 549.87, 14.01 543.35, 12.37 536.81 C10.73 530.26, 9.24 523.67, 7.93 517.06 C6.61 510.45, 5.46 503.81, 4.46 497.15 C3.47 490.49, 2.65 483.8, 1.99 477.1 C1.32 470.41, 0.83 463.69, 0.5 456.97 C0.17 450.26, 0 443.52, 0 436.8 C0 430.08, 0.17 423.34, 0.5 416.63 C0.83 409.91, 1.32 403.19, 1.99 396.5 C2.65 389.8, 3.47 383.11, 4.46 376.45 C5.46 369.79, 6.61 363.15, 7.93 356.54 C9.24 349.93, 10.73 343.34, 12.37 336.79 C14.01 330.25, 15.81 323.73, 17.77 317.26 C19.74 310.8, 21.86 304.36, 24.14 297.99 C26.41 291.61, 28.85 285.28, 31.44 279.01 C34.03 272.74, 36.78 266.52, 39.67 260.37 C42.57 254.22, 45.62 248.12, 48.81 242.1 C52.01 236.08, 55.35 230.13, 58.84 224.25 C62.33 218.38, 65.97 212.57, 69.74 206.85 C73.51 201.14, 77.43 195.5, 81.48 189.95 C85.53 184.4, 89.72 178.94, 94.04 173.57 C98.36 168.2, 102.82 162.92, 107.4 157.75 C111.98 152.58, 116.69 147.5, 121.52 142.53 C126.35 137.56, 131.3 132.69, 136.37 127.94 C141.44 123.18, 146.63 118.53, 151.93 114 C157.22 109.47, 162.64 105.05, 168.15 100.75 C173.67 96.46, 179.29 92.28, 185.01 88.23 C190.73 84.17, 196.56 80.24, 202.47 76.44 C208.39 72.64, 214.4 68.97, 220.49 65.43 C226.59 61.89, 232.78 58.47, 239.04 55.2 C245.3 51.93, 251.65 48.79, 258.06 45.79 C264.48 42.8, 270.98 39.93, 277.53 37.22 C284.09 34.5, 290.72 31.93, 297.41 29.5 C304.09 27.07, 310.84 24.78, 317.64 22.64 C324.43 20.51, 331.29 18.51, 338.18 16.67 C345.08 14.83, 352.02 13.14, 359 11.6 C365.98 10.06, 373 8.67, 380.05 7.44 C387.09 6.2, 394.18 5.12, 401.27 4.19 C408.37 3.26, 415.5 2.48, 422.64 1.86 C429.78 1.24, 436.94 0.78, 444.1 0.47 C451.26 0.16, 458.43 0, 465.6 0 C472.77 0, 479.94 0.16, 487.1 0.47 C494.26 0.78, 501.42 1.24, 508.56 1.86 C515.7 2.48, 522.83 3.26, 529.93 4.19 C537.02 5.12, 544.11 6.2, 551.15 7.44 C558.2 8.67, 565.22 10.06, 572.2 11.6 C579.18 13.14, 586.12 14.83, 593.02 16.67 C599.91 18.51, 606.77 20.51, 613.56 22.64 C620.36 24.78, 627.11 27.07, 633.79 29.5 C640.48 31.93, 647.11 34.5, 653.67 37.22 C660.22 39.93, 666.72 42.8, 673.14 45.79 C679.55 48.79, 685.9 51.93, 692.16 55.2 C698.42 58.47, 704.61 61.89, 710.71 65.43 C716.8 68.97, 722.81 72.64, 728.73 76.44 C734.64 80.24, 740.47 84.17, 746.19 88.23 C751.91 92.28, 757.53 96.46, 763.05 100.75 C768.56 105.05, 773.98 109.47, 779.27 114 C784.57 118.53, 789.76 123.18, 794.83 127.94 C799.9 132.69, 804.85 137.56, 809.68 142.53 C814.51 147.5, 819.22 152.58, 823.8 157.75 C828.38 162.92, 832.84 168.2, 837.16 173.57 C841.48 178.94, 845.67 184.4, 849.72 189.95 C853.77 195.5, 857.69 201.14, 861.46 206.85 C865.23 212.57, 868.87 218.38, 872.36 224.25 C875.85 230.13, 879.19 236.08, 882.39 242.1 C885.58 248.12, 888.63 254.22, 891.53 260.37 C894.42 266.52, 897.17 272.74, 899.76 279.01 C902.35 285.28, 904.79 291.61, 907.06 297.99 C909.34 304.36, 911.46 310.8, 913.43 317.26 C915.39 323.73, 917.19 330.25, 918.83 336.79 C920.47 343.34, 921.96 349.93, 923.27 356.54 C924.59 363.15, 925.74 369.79, 926.74 376.45 C927.73 383.11, 928.55 389.8, 929.21 396.5 C929.88 403.19, 930.37 409.91, 930.7 416.63 C931.03 423.34, 931.2 430.08, 931.2 436.8" stroke="transparent" stroke-width="1" fill="none"></path></g><g stroke-linecap="round" transform="translate(20.800079345702557 670.7999725341797) rotate(0 367.9999694824218 347.9999694824219)"><path d="M736 348 C736 353.88, 735.84 359.76, 735.53 365.63 C735.21 371.49, 734.74 377.36, 734.11 383.21 C733.48 389.05, 732.7 394.89, 731.76 400.7 C730.82 406.5, 729.72 412.3, 728.47 418.05 C727.22 423.81, 725.81 429.54, 724.25 435.23 C722.7 440.91, 720.98 446.57, 719.12 452.18 C717.26 457.78, 715.25 463.35, 713.09 468.86 C710.93 474.37, 708.63 479.84, 706.18 485.24 C703.73 490.63, 701.13 495.98, 698.39 501.26 C695.66 506.53, 692.77 511.75, 689.76 516.89 C686.74 522.02, 683.59 527.09, 680.3 532.08 C677.01 537.07, 673.59 541.98, 670.04 546.8 C666.49 551.62, 662.81 556.37, 659.01 561.01 C655.2 565.66, 651.27 570.22, 647.22 574.68 C643.18 579.14, 639 583.5, 634.72 587.76 C630.44 592.02, 626.04 596.18, 621.54 600.23 C617.04 604.28, 612.42 608.22, 607.71 612.05 C602.99 615.87, 598.17 619.59, 593.25 623.19 C588.34 626.79, 583.33 630.27, 578.23 633.63 C573.13 636.98, 567.93 640.22, 562.66 643.33 C557.39 646.44, 552.02 649.42, 546.59 652.27 C541.16 655.12, 535.64 657.85, 530.07 660.44 C524.49 663.02, 518.83 665.48, 513.12 667.8 C507.41 670.11, 501.63 672.3, 495.81 674.34 C489.98 676.38, 484.09 678.28, 478.17 680.04 C472.24 681.8, 466.25 683.42, 460.24 684.89 C454.23 686.36, 448.16 687.69, 442.08 688.88 C435.99 690.06, 429.87 691.1, 423.73 691.99 C417.58 692.88, 411.41 693.62, 405.23 694.21 C399.05 694.81, 392.84 695.26, 386.64 695.55 C380.43 695.85, 374.21 696, 368 696 C361.79 696, 355.57 695.85, 349.36 695.55 C343.16 695.26, 336.95 694.81, 330.77 694.21 C324.59 693.62, 318.42 692.88, 312.27 691.99 C306.13 691.1, 300.01 690.06, 293.92 688.88 C287.84 687.69, 281.77 686.36, 275.76 684.89 C269.75 683.42, 263.76 681.8, 257.83 680.04 C251.91 678.28, 246.02 676.38, 240.19 674.34 C234.37 672.3, 228.59 670.11, 222.88 667.8 C217.17 665.48, 211.51 663.02, 205.93 660.44 C200.36 657.85, 194.84 655.12, 189.41 652.27 C183.98 649.42, 178.61 646.44, 173.34 643.33 C168.07 640.22, 162.87 636.98, 157.77 633.63 C152.67 630.27, 147.66 626.79, 142.74 623.19 C137.83 619.59, 133.01 615.87, 128.29 612.05 C123.58 608.22, 118.96 604.28, 114.46 600.23 C109.96 596.18, 105.56 592.02, 101.28 587.76 C97 583.5, 92.82 579.14, 88.78 574.68 C84.73 570.22, 80.8 565.66, 76.99 561.01 C73.19 556.37, 69.51 551.62, 65.96 546.8 C62.41 541.98, 58.99 537.07, 55.7 532.08 C52.41 527.09, 49.26 522.02, 46.24 516.89 C43.23 511.75, 40.34 506.53, 37.61 501.26 C34.87 495.98, 32.27 490.63, 29.82 485.24 C27.37 479.84, 25.07 474.37, 22.91 468.86 C20.75 463.35, 18.74 457.78, 16.88 452.18 C15.02 446.57, 13.3 440.91, 11.75 435.23 C10.19 429.54, 8.78 423.81, 7.53 418.05 C6.28 412.3, 5.18 406.5, 4.24 400.7 C3.3 394.89, 2.52 389.05, 1.89 383.21 C1.26 377.36, 0.79 371.49, 0.47 365.63 C0.16 359.76, 0 353.88, 0 348 C0 342.12, 0.16 336.24, 0.47 330.37 C0.79 324.51, 1.26 318.64, 1.89 312.79 C2.52 306.95, 3.3 301.11, 4.24 295.3 C5.18 289.5, 6.28 283.7, 7.53 277.95 C8.78 272.19, 10.19 266.46, 11.75 260.77 C13.3 255.09, 15.02 249.43, 16.88 243.82 C18.74 238.22, 20.75 232.65, 22.91 227.14 C25.07 221.63, 27.37 216.16, 29.82 210.76 C32.27 205.36, 34.87 200.02, 37.61 194.74 C40.34 189.47, 43.23 184.25, 46.24 179.11 C49.26 173.98, 52.41 168.91, 55.7 163.92 C58.99 158.93, 62.41 154.02, 65.96 149.2 C69.51 144.38, 73.19 139.63, 76.99 134.99 C80.8 130.34, 84.73 125.78, 88.78 121.32 C92.82 116.86, 97 112.5, 101.28 108.24 C105.56 103.98, 109.96 99.82, 114.46 95.77 C118.96 91.72, 123.58 87.78, 128.29 83.95 C133.01 80.13, 137.83 76.41, 142.74 72.81 C147.66 69.21, 152.67 65.73, 157.77 62.37 C162.87 59.02, 168.07 55.78, 173.34 52.67 C178.61 49.56, 183.98 46.58, 189.41 43.73 C194.84 40.88, 200.36 38.15, 205.93 35.56 C211.51 32.98, 217.17 30.52, 222.88 28.2 C228.59 25.89, 234.37 23.7, 240.19 21.66 C246.02 19.62, 251.91 17.72, 257.83 15.96 C263.76 14.2, 269.75 12.58, 275.76 11.11 C281.77 9.64, 287.84 8.31, 293.92 7.12 C300.01 5.94, 306.13 4.9, 312.27 4.01 C318.42 3.12, 324.59 2.38, 330.77 1.79 C336.95 1.19, 343.16 0.74, 349.36 0.45 C355.57 0.15, 361.79 0, 368 0 C374.21 0, 380.43 0.15, 386.64 0.45 C392.84 0.74, 399.05 1.19, 405.23 1.79 C411.41 2.38, 417.58 3.12, 423.73 4.01 C429.87 4.9, 435.99 5.94, 442.08 7.12 C448.16 8.31, 454.23 9.64, 460.24 11.11 C466.25 12.58, 472.24 14.2, 478.17 15.96 C484.09 17.72, 489.98 19.62, 495.81 21.66 C501.63 23.7, 507.41 25.89, 513.12 28.2 C518.83 30.52, 524.49 32.98, 530.07 35.56 C535.64 38.15, 541.16 40.88, 546.59 43.73 C552.02 46.58, 557.39 49.56, 562.66 52.67 C567.93 55.78, 573.13 59.02, 578.23 62.37 C583.33 65.73, 588.34 69.21, 593.25 72.81 C598.17 76.41, 602.99 80.13, 607.71 83.95 C612.42 87.78, 617.04 91.72, 621.54 95.77 C626.04 99.82, 630.44 103.98, 634.72 108.24 C639 112.5, 643.18 116.86, 647.22 121.32 C651.27 125.78, 655.2 130.34, 659.01 134.99 C662.81 139.63, 666.49 144.38, 670.04 149.2 C673.59 154.02, 677.01 158.93, 680.3 163.92 C683.59 168.91, 686.74 173.98, 689.76 179.11 C692.77 184.25, 695.66 189.47, 698.39 194.74 C701.13 200.02, 703.73 205.36, 706.18 210.76 C708.63 216.16, 710.93 221.63, 713.09 227.14 C715.25 232.65, 717.26 238.22, 719.12 243.82 C720.98 249.43, 722.7 255.09, 724.25 260.77 C725.81 266.46, 727.22 272.19, 728.47 277.95 C729.72 283.7, 730.82 289.5, 731.76 295.3 C732.7 301.11, 733.48 306.95, 734.11 312.79 C734.74 318.64, 735.21 324.51, 735.53 330.37 C735.84 336.24, 735.92 345.06, 736 348 C736.08 350.94, 736.08 345.06, 736 348" stroke="none" stroke-width="0" fill="#cdebd3"></path><path d="M736 348 C736 353.88, 735.84 359.76, 735.53 365.63 C735.21 371.49, 734.74 377.36, 734.11 383.21 C733.48 389.05, 732.7 394.89, 731.76 400.7 C730.82 406.5, 729.72 412.3, 728.47 418.05 C727.22 423.81, 725.81 429.54, 724.25 435.23 C722.7 440.91, 720.98 446.57, 719.12 452.18 C717.26 457.78, 715.25 463.35, 713.09 468.86 C710.93 474.37, 708.63 479.84, 706.18 485.24 C703.73 490.63, 701.13 495.98, 698.39 501.26 C695.66 506.53, 692.77 511.75, 689.76 516.89 C686.74 522.02, 683.59 527.09, 680.3 532.08 C677.01 537.07, 673.59 541.98, 670.04 546.8 C666.49 551.62, 662.81 556.37, 659.01 561.01 C655.2 565.66, 651.27 570.22, 647.22 574.68 C643.18 579.14, 639 583.5, 634.72 587.76 C630.44 592.02, 626.04 596.18, 621.54 600.23 C617.04 604.28, 612.42 608.22, 607.71 612.05 C602.99 615.87, 598.17 619.59, 593.25 623.19 C588.34 626.79, 583.33 630.27, 578.23 633.63 C573.13 636.98, 567.93 640.22, 562.66 643.33 C557.39 646.44, 552.02 649.42, 546.59 652.27 C541.16 655.12, 535.64 657.85, 530.07 660.44 C524.49 663.02, 518.83 665.48, 513.12 667.8 C507.41 670.11, 501.63 672.3, 495.81 674.34 C489.98 676.38, 484.09 678.28, 478.17 680.04 C472.24 681.8, 466.25 683.42, 460.24 684.89 C454.23 686.36, 448.16 687.69, 442.08 688.88 C435.99 690.06, 429.87 691.1, 423.73 691.99 C417.58 692.88, 411.41 693.62, 405.23 694.21 C399.05 694.81, 392.84 695.26, 386.64 695.55 C380.43 695.85, 374.21 696, 368 696 C361.79 696, 355.57 695.85, 349.36 695.55 C343.16 695.26, 336.95 694.81, 330.77 694.21 C324.59 693.62, 318.42 692.88, 312.27 691.99 C306.13 691.1, 300.01 690.06, 293.92 688.88 C287.84 687.69, 281.77 686.36, 275.76 684.89 C269.75 683.42, 263.76 681.8, 257.83 680.04 C251.91 678.28, 246.02 676.38, 240.19 674.34 C234.37 672.3, 228.59 670.11, 222.88 667.8 C217.17 665.48, 211.51 663.02, 205.93 660.44 C200.36 657.85, 194.84 655.12, 189.41 652.27 C183.98 649.42, 178.61 646.44, 173.34 643.33 C168.07 640.22, 162.87 636.98, 157.77 633.63 C152.67 630.27, 147.66 626.79, 142.74 623.19 C137.83 619.59, 133.01 615.87, 128.29 612.05 C123.58 608.22, 118.96 604.28, 114.46 600.23 C109.96 596.18, 105.56 592.02, 101.28 587.76 C97 583.5, 92.82 579.14, 88.78 574.68 C84.73 570.22, 80.8 565.66, 76.99 561.01 C73.19 556.37, 69.51 551.62, 65.96 546.8 C62.41 541.98, 58.99 537.07, 55.7 532.08 C52.41 527.09, 49.26 522.02, 46.24 516.89 C43.23 511.75, 40.34 506.53, 37.61 501.26 C34.87 495.98, 32.27 490.63, 29.82 485.24 C27.37 479.84, 25.07 474.37, 22.91 468.86 C20.75 463.35, 18.74 457.78, 16.88 452.18 C15.02 446.57, 13.3 440.91, 11.75 435.23 C10.19 429.54, 8.78 423.81, 7.53 418.05 C6.28 412.3, 5.18 406.5, 4.24 400.7 C3.3 394.89, 2.52 389.05, 1.89 383.21 C1.26 377.36, 0.79 371.49, 0.47 365.63 C0.16 359.76, 0 353.88, 0 348 C0 342.12, 0.16 336.24, 0.47 330.37 C0.79 324.51, 1.26 318.64, 1.89 312.79 C2.52 306.95, 3.3 301.11, 4.24 295.3 C5.18 289.5, 6.28 283.7, 7.53 277.95 C8.78 272.19, 10.19 266.46, 11.75 260.77 C13.3 255.09, 15.02 249.43, 16.88 243.82 C18.74 238.22, 20.75 232.65, 22.91 227.14 C25.07 221.63, 27.37 216.16, 29.82 210.76 C32.27 205.36, 34.87 200.02, 37.61 194.74 C40.34 189.47, 43.23 184.25, 46.24 179.11 C49.26 173.98, 52.41 168.91, 55.7 163.92 C58.99 158.93, 62.41 154.02, 65.96 149.2 C69.51 144.38, 73.19 139.63, 76.99 134.99 C80.8 130.34, 84.73 125.78, 88.78 121.32 C92.82 116.86, 97 112.5, 101.28 108.24 C105.56 103.98, 109.96 99.82, 114.46 95.77 C118.96 91.72, 123.58 87.78, 128.29 83.95 C133.01 80.13, 137.83 76.41, 142.74 72.81 C147.66 69.21, 152.67 65.73, 157.77 62.37 C162.87 59.02, 168.07 55.78, 173.34 52.67 C178.61 49.56, 183.98 46.58, 189.41 43.73 C194.84 40.88, 200.36 38.15, 205.93 35.56 C211.51 32.98, 217.17 30.52, 222.88 28.2 C228.59 25.89, 234.37 23.7, 240.19 21.66 C246.02 19.62, 251.91 17.72, 257.83 15.96 C263.76 14.2, 269.75 12.58, 275.76 11.11 C281.77 9.64, 287.84 8.31, 293.92 7.12 C300.01 5.94, 306.13 4.9, 312.27 4.01 C318.42 3.12, 324.59 2.38, 330.77 1.79 C336.95 1.19, 343.16 0.74, 349.36 0.45 C355.57 0.15, 361.79 0, 368 0 C374.21 0, 380.43 0.15, 386.64 0.45 C392.84 0.74, 399.05 1.19, 405.23 1.79 C411.41 2.38, 417.58 3.12, 423.73 4.01 C429.87 4.9, 435.99 5.94, 442.08 7.12 C448.16 8.31, 454.23 9.64, 460.24 11.11 C466.25 12.58, 472.24 14.2, 478.17 15.96 C484.09 17.72, 489.98 19.62, 495.81 21.66 C501.63 23.7, 507.41 25.89, 513.12 28.2 C518.83 30.52, 524.49 32.98, 530.07 35.56 C535.64 38.15, 541.16 40.88, 546.59 43.73 C552.02 46.58, 557.39 49.56, 562.66 52.67 C567.93 55.78, 573.13 59.02, 578.23 62.37 C583.33 65.73, 588.34 69.21, 593.25 72.81 C598.17 76.41, 602.99 80.13, 607.71 83.95 C612.42 87.78, 617.04 91.72, 621.54 95.77 C626.04 99.82, 630.44 103.98, 634.72 108.24 C639 112.5, 643.18 116.86, 647.22 121.32 C651.27 125.78, 655.2 130.34, 659.01 134.99 C662.81 139.63, 666.49 144.38, 670.04 149.2 C673.59 154.02, 677.01 158.93, 680.3 163.92 C683.59 168.91, 686.74 173.98, 689.76 179.11 C692.77 184.25, 695.66 189.47, 698.39 194.74 C701.13 200.02, 703.73 205.36, 706.18 210.76 C708.63 216.16, 710.93 221.63, 713.09 227.14 C715.25 232.65, 717.26 238.22, 719.12 243.82 C720.98 249.43, 722.7 255.09, 724.25 260.77 C725.81 266.46, 727.22 272.19, 728.47 277.95 C729.72 283.7, 730.82 289.5, 731.76 295.3 C732.7 301.11, 733.48 306.95, 734.11 312.79 C734.74 318.64, 735.21 324.51, 735.53 330.37 C735.84 336.24, 735.92 345.06, 736 348 C736.08 350.94, 736.08 345.06, 736 348" stroke="transparent" stroke-width="1" fill="none"></path></g></svg>